<svg width="800" height="1000" viewBox="0 0 800 1000" fill="none" xmlns="http://www.w3.org/2000/svg">
  <defs>
    <linearGradient id="bg" x1="0" y1="0" x2="0" y2="1000" gradientUnits="userSpaceOnUse"><stop stop-color="#150b2e"/><stop offset="0.6" stop-color="#0b0618"/><stop offset="1" stop-color="#030305"/></linearGradient>
    <radialGradient id="neb" cx="0.5" cy="0.5" r="0.5"><stop stop-color="#8b5cf6" stop-opacity="0.5"/><stop offset="1" stop-color="#8b5cf6" stop-opacity="0"/></radialGradient>
    <radialGradient id="neb2" cx="0.5" cy="0.5" r="0.5"><stop stop-color="#ff69d5" stop-opacity="0.32"/><stop offset="1" stop-color="#ff69d5" stop-opacity="0"/></radialGradient>
    <radialGradient id="core" cx="0.5" cy="0.5" r="0.5"><stop stop-color="#ffffff"/><stop offset="0.3" stop-color="#e9d5ff"/><stop offset="1" stop-color="#8b5cf6" stop-opacity="0"/></radialGradient>
    <filter id="blur"><feGaussianBlur stdDeviation="14"/></filter>
  </defs>
  <rect width="800" height="1000" fill="url(#bg)"/>
  <ellipse cx="220" cy="260" rx="340" ry="260" fill="url(#neb)"/>
  <ellipse cx="620" cy="640" rx="300" ry="240" fill="url(#neb2)"/>
  <g fill="#e8ecff">
    <circle cx="80" cy="120" r="1.6" opacity="0.7"/><circle cx="210" cy="80" r="1.1" opacity="0.5"/><circle cx="350" cy="140" r="2" opacity="0.8"/><circle cx="520" cy="90" r="1.3" opacity="0.6"/><circle cx="660" cy="160" r="1.8" opacity="0.7"/><circle cx="740" cy="60" r="1.2" opacity="0.5"/>
    <circle cx="120" cy="420" r="1.4" opacity="0.5"/><circle cx="60" cy="620" r="1.9" opacity="0.7"/><circle cx="170" cy="820" r="1.2" opacity="0.5"/><circle cx="290" cy="920" r="1.7" opacity="0.6"/><circle cx="450" cy="860" r="1.3" opacity="0.5"/><circle cx="600" cy="930" r="1.9" opacity="0.7"/>
    <circle cx="700" cy="780" r="1.4" opacity="0.6"/><circle cx="760" cy="500" r="1.7" opacity="0.7"/><circle cx="640" cy="380" r="1.2" opacity="0.5"/><circle cx="90" cy="260" r="1.5" opacity="0.55"/><circle cx="470" cy="230" r="1.4" opacity="0.6"/><circle cx="300" cy="330" r="1.1" opacity="0.45"/>
  </g>
  <g stroke="#b9a6ff" stroke-width="1.6" opacity="0.75">
    <line x1="250" y1="700" x2="380" y2="660"/><line x1="380" y1="660" x2="520" y2="690"/><line x1="520" y1="690" x2="560" y2="780"/><line x1="250" y1="700" x2="300" y2="790"/><line x1="300" y1="790" x2="560" y2="780"/><line x1="380" y1="660" x2="400" y2="540"/>
  </g>
  <g>
    <circle cx="250" cy="700" r="15" fill="#8b5cf6" opacity="0.28" filter="url(#blur)"/><circle cx="250" cy="700" r="5" fill="#ffffff"/>
    <circle cx="380" cy="660" r="18" fill="#8b5cf6" opacity="0.28" filter="url(#blur)"/><circle cx="380" cy="660" r="6" fill="#ffffff"/>
    <circle cx="520" cy="690" r="15" fill="#8b5cf6" opacity="0.28" filter="url(#blur)"/><circle cx="520" cy="690" r="5" fill="#ffffff"/>
    <circle cx="560" cy="780" r="12" fill="#8b5cf6" opacity="0.28" filter="url(#blur)"/><circle cx="560" cy="780" r="4" fill="#ffffff"/>
    <circle cx="300" cy="790" r="12" fill="#8b5cf6" opacity="0.28" filter="url(#blur)"/><circle cx="300" cy="790" r="4" fill="#ffffff"/>
    <circle cx="400" cy="540" r="21" fill="#8b5cf6" opacity="0.28" filter="url(#blur)"/><circle cx="400" cy="540" r="7" fill="#ffffff"/>
  </g>
  <circle cx="400" cy="380" r="190" fill="url(#core)" opacity="0.85"/>
  <path d="M400 290 L424 356 L494 356 L438 398 L458 466 L400 424 L342 466 L362 398 L306 356 L376 356 Z" fill="#ffffff"/>
  <path d="M400 290 L424 356 L494 356 L438 398 L458 466 L400 424 L342 466 L362 398 L306 356 L376 356 Z" fill="none" stroke="#e9d5ff" stroke-width="6" opacity="0.6" filter="url(#blur)"/>
  <g fill="#ffd9f2">
    <path d="M540 300 l6 12 12 6 -12 6 -6 12 -6 -12 -12 -6 12 -6 Z"/>
    <path d="M270 430 l5 10 10 5 -10 5 -5 10 -5 -10 -10 -5 10 -5 Z" opacity="0.8"/>
    <path d="M480 520 l4 8 8 4 -8 4 -4 8 -4 -8 -8 -4 8 -4 Z" opacity="0.7"/>
  </g>
</svg>
