<?xml version="1.0" standalone="no"?>
<!DOCTYPE svg PUBLIC "-//W3C//DTD SVG 20010904//EN"
 "http://www.w3.org/TR/2001/REC-SVG-20010904/DTD/svg10.dtd">
<svg version="1.0" xmlns="http://www.w3.org/2000/svg"
 width="929.000000pt" height="870.000000pt" viewBox="0 0 929.000000 870.000000"
 preserveAspectRatio="xMidYMid meet">

<g transform="translate(0.000000,870.000000) scale(0.100000,-0.100000)"
fill="#000000" stroke="none">
<path d="M0 4350 l0 -4350 4645 0 4645 0 0 4350 0 4350 -4645 0 -4645 0 0
-4350z m7441 3000 c118 -36 216 -146 239 -265 8 -44 10 -796 8 -2780 -3 -2651
-3 -2721 -22 -2770 -27 -70 -125 -165 -202 -196 l-59 -24 -2725 0 c-2701 0
-2725 0 -2778 20 -116 44 -201 149 -222 274 -7 47 -10 840 -8 2781 l3 2715 23
49 c48 105 133 174 247 202 39 10 665 12 2741 13 2654 1 2693 1 2755 -19z"/>
<path d="M2040 4345 l0 -2635 2633 2 2632 3 -2 1425 c0 784 -2 1968 -2 2633
l-1 1207 -2630 0 -2630 0 0 -2635z m1812 2041 c156 -47 175 -47 1388 -44
l1145 4 118 32 c64 17 152 47 194 67 42 19 78 33 81 31 9 -10 -149 -317 -221
-428 -100 -155 -177 -259 -331 -446 -264 -321 -422 -487 -1564 -1640 -454
-459 -834 -845 -844 -858 l-19 -24 1003 0 c1099 0 1121 1 1259 59 75 32 170
100 222 161 73 86 187 360 187 451 0 52 16 31 44 -58 43 -139 85 -422 86 -573
l0 -66 -57 -56 c-48 -46 -136 -122 -313 -272 -14 -12 -66 -56 -116 -98 -50
-42 -152 -126 -228 -186 l-137 -110 -77 33 c-110 48 -241 84 -362 100 -134 18
-2026 22 -2192 4 -132 -14 -306 -57 -433 -109 -55 -22 -103 -40 -107 -40 -9 0
95 201 144 280 128 202 204 312 380 541 94 124 401 469 607 683 85 89 529 537
987 996 458 459 847 851 863 871 17 20 28 39 24 43 -3 3 -434 6 -957 6 -1009
0 -1064 -2 -1196 -48 -177 -61 -304 -174 -410 -361 -42 -74 -99 -235 -100
-278 0 -13 -4 -23 -9 -23 -31 0 -93 297 -116 555 -3 39 -8 89 -11 113 -7 54
-45 16 501 487 51 44 147 128 214 187 l120 107 75 -34 c41 -19 112 -45 158
-59z"/>
</g>
</svg>
