<?xml version="1.0" encoding="UTF-8"?>
<svg version="1.1" xmlns="http://www.w3.org/2000/svg" width="1024" height="1024">
<path d="M0 0 C0.7693797 -0.00175304 1.53875939 -0.00350607 2.33145362 -0.00531223 C4.90062462 -0.00995134 7.46973851 -0.00751214 10.03891182 -0.00507832 C11.90309957 -0.00694733 13.76728692 -0.0092484 15.63147366 -0.01194364 C20.74760856 -0.01805668 25.86372711 -0.01792863 30.97986484 -0.01674926 C36.50007869 -0.01654513 42.02028732 -0.02206513 47.54049873 -0.02680683 C58.35260328 -0.03511094 69.16470238 -0.03786155 79.97680984 -0.03841921 C88.76467361 -0.03889443 97.55253559 -0.04094947 106.34039879 -0.04411983 C127.201557 -0.0514927 148.06271424 -0.05764474 168.9238739 -0.05712128 C169.59074643 -0.0571057 170.25761895 -0.05709012 170.94469974 -0.05707407 C174.32457377 -0.05699096 177.70444781 -0.05689192 181.08432184 -0.05678936 C181.75555988 -0.05676942 182.42679792 -0.05674947 183.1183765 -0.05672892 C184.47578228 -0.05668848 185.83318806 -0.05664669 187.19059383 -0.05660353 C208.31184384 -0.05599071 229.43307779 -0.06349924 250.5543232 -0.07717609 C274.29157672 -0.09254064 298.02882126 -0.10112945 321.76608098 -0.10021287 C334.33178253 -0.09988078 346.89746597 -0.10263329 359.46316338 -0.11339092 C370.1602291 -0.12249014 380.8572685 -0.12467588 391.55433641 -0.1178815 C397.01171738 -0.11461355 402.46904784 -0.11456961 407.92642403 -0.12323475 C412.92403453 -0.13108829 417.92155438 -0.12968 422.91916265 -0.12095062 C424.72528101 -0.11941312 426.5314061 -0.12124117 428.33751653 -0.12681069 C437.08843056 -0.15200479 445.45500681 -0.08110559 453.98449898 2.12863445 C455.27554332 2.34471889 455.27554332 2.34471889 456.59266937 2.56516868 C462.56768125 3.97275837 466.65976757 11.26130432 469.98449898 16.12863445 C473.57114102 22.43617735 474.13323577 27.83537774 474.11872005 34.99642849 C474.12107228 35.78628348 474.12342452 36.57613847 474.12584803 37.38992846 C474.13252535 40.04680177 474.13208019 42.70362602 474.13167 45.36050701 C474.13496939 47.28056578 474.13869512 49.20062386 474.14281148 51.12068105 C474.15283067 56.40514322 474.15654813 61.68959403 474.15920079 66.97406435 C474.16310397 72.67018491 474.17268218 78.36629648 474.18141365 84.06241131 C474.2011757 97.82096209 474.21124309 111.57951361 474.22014144 125.33807504 C474.224524 131.81518023 474.22989082 138.29228461 474.23513031 144.76938915 C474.25214089 166.29610715 474.26666104 187.82282385 474.27387905 209.34954739 C474.27435381 210.74143343 474.2748297 212.13331947 474.27530671 213.52520551 C474.27566128 214.56057364 474.27566128 214.56057364 474.276023 215.61685831 C474.2772242 219.11394776 474.27843965 222.6110372 474.27966499 226.10812664 C474.27990514 226.80213207 474.28014529 227.4961375 474.28039272 228.2111734 C474.28828712 250.71671857 474.31172299 273.22221105 474.34422094 295.72773321 C474.37851965 319.52377004 474.39822901 343.31976959 474.40152329 367.11583257 C474.40369011 380.08678527 474.4124642 393.05766052 474.43798447 406.0285902 C474.4596628 417.07235619 474.46775592 428.1160259 474.45801768 439.15981075 C474.45346496 444.79532727 474.45541594 450.43064504 474.47477913 456.06613445 C474.49235351 461.22549871 474.49145955 466.38451835 474.47588184 471.54388598 C474.47349709 473.40997192 474.47787406 475.27608137 474.48971049 477.1421313 C474.56529764 489.84591095 473.67683695 498.84499906 464.69543648 508.4137907 C456.470694 516.65731113 446.68601492 519.22733275 435.19285914 519.25466853 C434.48412954 519.25129472 433.77539993 519.2479209 433.04519367 519.24444485 C432.2719027 519.24480911 431.49861173 519.24517337 430.7018877 519.24554867 C428.11338082 519.2455281 425.52494517 519.23831341 422.93644905 519.23111248 C421.06075073 519.22956582 419.185052 519.22845469 417.30935317 519.22774148 C412.15674561 519.22446853 407.00416654 519.2148394 401.85156977 519.20413423 C396.29385312 519.19366016 390.73613104 519.18897136 385.17840767 519.18345928 C373.0277003 519.17024559 360.87701329 519.14938259 348.72632003 519.126894 C341.13985852 519.11287154 333.55339498 519.10036761 325.96693039 519.08814526 C304.96254697 519.05403178 283.95816833 519.01807796 262.95380116 518.97505093 C261.59622373 518.97227503 260.2386463 518.96949923 258.88106887 518.96672352 C257.52025065 518.96393922 256.15943243 518.9611547 254.7986142 518.95836997 C252.068665 518.95278377 249.33871578 518.94720185 246.60876656 518.94162273 C245.93190093 518.94023728 245.25503529 518.93885183 244.55765858 518.9374244 C222.60602275 518.89257574 200.65439273 518.85998789 178.70272612 518.83477784 C155.48535359 518.80806962 132.26802278 518.7705527 109.05068618 518.72060323 C96.39778465 518.69364064 83.74491506 518.67147435 71.09198761 518.66158581 C60.31983976 518.65311166 49.54777018 518.6344482 38.77566537 518.60248199 C33.27980429 518.58647763 27.78404496 518.57529118 22.28815842 518.57708454 C17.25528686 518.57861009 12.22264274 518.56634768 7.18982599 518.54318622 C5.37090182 518.53722744 3.55195271 518.53628518 1.73302468 518.54091761 C-8.98959245 518.56499129 -18.31392888 518.13569079 -28.01550102 513.12863445 C-27.68550102 512.46863445 -27.35550102 511.80863445 -27.01550102 511.12863445 C-28.33550102 510.46863445 -29.65550102 509.80863445 -31.01550102 509.12863445 C-31.01550102 508.46863445 -31.01550102 507.80863445 -31.01550102 507.12863445 C-32.00550102 506.79863445 -32.99550102 506.46863445 -34.01550102 506.12863445 C-35.11315727 504.52707195 -35.11315727 504.52707195 -36.07800102 502.50363445 C-36.39897758 501.85136883 -36.71995415 501.1991032 -37.05065727 500.52707195 C-39.40311921 494.67925158 -40.30733602 489.29760745 -40.26438999 483.02756882 C-40.26699728 482.23679492 -40.26960456 481.44602101 -40.27229086 480.63128427 C-40.27858381 477.98327041 -40.27063202 475.33549435 -40.26273918 472.6874876 C-40.26432763 470.76911469 -40.26679158 468.85074235 -40.27005559 466.93237156 C-40.27647067 461.66187285 -40.27039965 456.39145092 -40.26229131 451.12095726 C-40.2557152 445.43648176 -40.26066262 439.75201485 -40.26417351 434.06753826 C-40.26921682 422.93176912 -40.2635721 411.79602966 -40.25432321 400.6602642 C-40.24394201 387.69535531 -40.24400933 374.73045285 -40.24449579 361.76554059 C-40.24501166 337.93481298 -40.23497247 314.10410134 -40.21999335 290.2733791 C-40.20637112 268.52127121 -40.200132 246.76917431 -40.20080376 225.01706219 C-40.20084417 223.62050597 -40.20088453 222.22394976 -40.20092484 220.82739354 C-40.20094519 220.13696125 -40.20096554 219.44652897 -40.2009865 218.73517449 C-40.2010873 215.25958781 -40.20117788 211.78400114 -40.20125675 208.30841446 C-40.20127347 207.62272651 -40.20129018 206.93703855 -40.2013074 206.23057218 C-40.20175104 184.15188077 -40.19463042 162.07319168 -40.18689391 139.99450179 C-40.18387692 130.95520842 -40.18281427 121.91591601 -40.1823616 112.8766222 C-40.18167952 101.86144405 -40.17721567 90.84627462 -40.16802879 79.83110017 C-40.16341104 74.20994276 -40.16036523 68.5887965 -40.161623 62.96763706 C-40.1627184 57.82269533 -40.15919738 52.67777826 -40.15197448 47.53284167 C-40.15016201 45.67087601 -40.15003002 43.8089078 -40.15174177 41.94694204 C-40.15381063 39.41644593 -40.14973493 36.88603034 -40.14413548 34.35554123 C-40.14619079 33.63253764 -40.14824611 32.90953405 -40.15036371 32.16462126 C-40.09873517 19.39240762 -40.09873517 19.39240762 -36.76550102 15.50363445 C-35.85800102 14.71988445 -34.95050102 13.93613445 -34.01550102 13.12863445 C-30.59113265 9.04353403 -30.59113265 9.04353403 -27.26550102 4.87863445 C-20.36595356 -0.48768024 -8.37804351 -0.02455412 0 0 Z M-6.01550102 36.12863445 C-6.01550102 182.64863445 -6.01550102 329.16863445 -6.01550102 480.12863445 C32.47638816 480.99298647 32.47638816 480.99298647 70.96542549 481.25305462 C72.7314052 481.25125911 74.49738497 481.24952333 76.26336479 481.24783993 C77.60395482 481.2462857 77.60395482 481.2462857 78.97162747 481.24470007 C83.82294327 481.24025149 88.67425837 481.24185184 93.52557564 481.24260235 C101.86907339 481.24311876 110.21256314 481.24006632 118.55605888 481.23436451 C130.61834119 481.22612685 142.68061975 481.22362196 154.74290456 481.22237652 C174.32815826 481.22020491 193.91340772 481.21359697 213.49865913 481.20407391 C232.48824226 481.19485027 251.47782421 481.18779388 270.46740913 481.18356609 C272.23251757 481.18317201 272.23251757 481.18317201 274.03328477 481.18276996 C279.93849594 481.18146463 285.84370711 481.18020099 291.74891829 481.17895806 C340.49411478 481.16864451 389.23930667 481.15107873 437.98449898 481.12863445 C437.98449898 480.16449627 437.98449898 479.20035809 437.98449898 478.20700359 C437.98449898 368.12863445 437.98449898 368.12863445 438.10949898 365.81613445 C437.97930323 363.01692596 437.39612017 361.51074521 435.98449898 359.12863445 C436.64449898 359.12863445 437.30449898 359.12863445 437.98449898 359.12863445 C437.79887398 357.99425945 437.61324898 356.85988445 437.42199898 355.69113445 C437.27762398 354.51550945 437.13324898 353.33988445 436.98449898 352.12863445 C437.31449898 351.79863445 437.64449898 351.46863445 437.98449898 351.12863445 C438.07314522 348.50909031 438.09971928 345.91608091 438.08215523 343.2966032 C438.08074028 342.50844723 438.07932533 341.72029125 438.07786751 340.90825176 C438.07225277 338.37750805 438.05971133 335.84685152 438.04699898 333.31613445 C438.04198469 331.6201722 438.03742166 329.92420855 438.0333271 328.22824383 C438.02514532 325.10932926 438.01440407 321.99044804 438.00036812 318.87155437 C437.96448216 310.40743642 437.94267713 301.94072009 438.01623726 293.47677898 C438.05225143 289.30525961 438.07534845 285.1337595 438.09436226 280.96213055 C438.10443353 279.16002349 438.11809123 277.35793283 438.13537788 275.55588055 C438.15965109 272.95769527 438.17098502 270.35972495 438.17981148 267.76144695 C438.19013405 266.95716259 438.20045662 266.15287823 438.211092 265.32422161 C438.21186739 261.4538024 438.19899941 258.40276732 435.98449898 255.12863445 C436.64449898 255.12863445 437.30449898 255.12863445 437.98449898 255.12863445 C437.79887398 253.99425945 437.61324898 252.85988445 437.42199898 251.69113445 C437.27762398 250.51550945 437.13324898 249.33988445 436.98449898 248.12863445 C437.31449898 247.79863445 437.64449898 247.46863445 437.98449898 247.12863445 C438.07223808 245.09120044 438.09145208 243.05074808 438.08215523 241.01144695 C438.07732124 239.1416618 438.07732124 239.1416618 438.0723896 237.2341032 C438.0640107 235.92054852 438.05563179 234.60699383 438.04699898 233.25363445 C438.0402314 231.29490398 438.0402314 231.29490398 438.0333271 229.2966032 C438.02457051 226.87227772 438.01377425 224.44795822 438.00036812 222.02365398 C437.8189931 188.93526967 437.8189931 188.93526967 438.10949898 182.25363445 C437.98747503 179.20303566 437.55777228 177.68520356 435.98449898 175.12863445 C436.64449898 175.12863445 437.30449898 175.12863445 437.98449898 175.12863445 C438.03084038 163.87161441 438.06637741 152.61461706 438.08812332 141.35752106 C438.09856028 136.13039372 438.11271798 130.90333165 438.13537788 125.67624187 C438.15710925 120.63177314 438.16906827 115.58736719 438.17425346 110.54285526 C438.17794868 108.6183368 438.18516447 106.69382176 438.19595909 104.76933002 C438.21047783 102.07367433 438.21247675 99.37827804 438.21154976 96.68258953 C438.21874031 95.88705166 438.22593086 95.09151379 438.23333931 94.27186871 C438.21786837 90.11392539 437.85960172 86.86696926 435.98449898 83.12863445 C436.64449898 83.12863445 437.30449898 83.12863445 437.98449898 83.12863445 C437.98449898 82.42255047 437.98449898 81.71646648 437.98449898 80.98898602 C437.98449898 55.12863445 437.98449898 55.12863445 438.08996773 51.9997282 C438.11703804 50.86664227 438.14410835 49.73355633 438.17199898 48.56613445 C438.22420601 46.86263836 438.22420601 46.86263836 438.27746773 45.1247282 C438.25723514 42.11838727 438.25723514 42.11838727 436.47278023 40.2262907 C435.98164742 39.86406414 435.4905146 39.50183758 434.98449898 39.12863445 C435.31449898 38.13863445 435.64449898 37.14863445 435.98449898 36.12863445 C290.12449898 36.12863445 144.26449898 36.12863445 -6.01550102 36.12863445 Z M436.98449898 37.12863445 C436.65449898 38.11863445 436.32449898 39.10863445 435.98449898 40.12863445 C436.97449898 40.62363445 436.97449898 40.62363445 437.98449898 41.12863445 C437.65449898 39.80863445 437.32449898 38.48863445 436.98449898 37.12863445 Z " fill="#56A2F6" transform="translate(295.01550102233887,252.87136554718018)"/>
<path d="M0 0 C0.66 0 1.32 0 2 0 C1.5277827 6.58379888 -0.88936232 11.7915783 -3.75 17.6875 C-4.47775635 19.19630737 -4.47775635 19.19630737 -5.22021484 20.7355957 C-12.12063598 34.68435111 -20.78223819 47.5642701 -30.390625 59.78515625 C-32.16551941 61.99348511 -32.16551941 61.99348511 -33 65 C-34.65182634 66.68137601 -36.32173552 68.34501242 -38 70 C-40.08099796 72.43101941 -42.06763378 74.9356078 -44.0625 77.4375 C-53.28734175 88.87892074 -62.78646001 99.93859548 -72.92529297 110.58398438 C-76.1206259 113.94605264 -79.14899683 117.3344245 -82 121 C-84.125 123.3125 -84.125 123.3125 -86 125 C-86.66 125 -87.32 125 -88 125 C-88 126.32 -88 127.64 -88 129 C-89.63759196 130.04693379 -91.31340053 131.03399792 -93 132 C-95.53159635 134.24010112 -97.88383567 136.64969965 -100.25 139.0625 C-100.88679688 139.69994141 -101.52359375 140.33738281 -102.1796875 140.99414062 C-105.49250036 144.19846782 -105.49250036 144.19846782 -108 148 C-108.66 148 -109.32 148 -110 148 C-110.33 148.99 -110.66 149.98 -111 151 C-111.66 151 -112.32 151 -113 151 C-113 151.66 -113 152.32 -113 153 C-114.61931721 154.7127076 -116.29563368 156.37190571 -118 158 C-118.80927948 158.80705887 -119.61855896 159.61411774 -120.45236206 160.44563293 C-121.3083902 161.29864487 -122.16441833 162.1516568 -123.04638672 163.03051758 C-127.90161903 167.86940559 -132.75430475 172.71083893 -137.60554314 177.55373096 C-140.53046158 180.47343391 -143.45630835 183.39219389 -146.38427734 186.30883789 C-149.2322325 189.1458544 -152.07767157 191.98537295 -154.92145157 194.82657433 C-155.99771561 195.90100707 -157.07485139 196.97456742 -158.15291977 198.04718971 C-163.54237202 203.41048418 -168.85066409 208.76886356 -173.67581177 214.6558075 C-174.11279388 215.09939102 -174.549776 215.54297455 -175 216 C-175.66 216 -176.32 216 -177 216 C-177 216.66 -177 217.32 -177 218 C-178.5390625 219.48046875 -178.5390625 219.48046875 -180.625 221.1875 C-183.33466777 223.4835869 -185.75296716 225.75017804 -188 228.5 C-190.09836678 231.05084479 -192.28602138 233.18467679 -194.8125 235.3125 C-199.01947493 238.86289503 -202.54370866 242.88123433 -206.1171875 247.05859375 C-206.73851562 247.69925781 -207.35984375 248.33992187 -208 249 C-208.66 249 -209.32 249 -210 249 C-210.38857681 249.87704338 -210.38857681 249.87704338 -210.78500366 250.77180481 C-212.09220344 253.1690929 -213.50067775 254.73528595 -215.43994141 256.65112305 C-216.14051666 257.34831955 -216.84109192 258.04551605 -217.56289673 258.76383972 C-218.31815643 259.5056398 -219.07341614 260.24743988 -219.8515625 261.01171875 C-220.62559418 261.78054886 -221.39962585 262.54937897 -222.19711304 263.34150696 C-224.66837917 265.79496337 -227.14623176 268.24162514 -229.625 270.6875 C-232.1100193 273.14495591 -234.59358934 275.60383301 -237.0743103 278.06562805 C-238.61849136 279.59749296 -240.16533614 281.12667799 -241.71499634 282.65299988 C-242.40926727 283.3407399 -243.10353821 284.02847992 -243.81884766 284.73706055 C-244.43458649 285.34454636 -245.05032532 285.95203217 -245.6847229 286.57792664 C-247.11316714 287.79951067 -247.11316714 287.79951067 -247 289 C-245.35 289 -243.7 289 -242 289 C-242 289.66 -242 290.32 -242 291 C-240.845 290.835 -239.69 290.67 -238.5 290.5 C-234.30092197 289.96761689 -230.22936959 289.92447554 -226 290 C-226 289.67 -226 289.34 -226 289 C-224.33388095 288.957279 -222.66617115 288.95936168 -221 289 C-220.67 289.33 -220.34 289.66 -220 290 C-219.34 289.67 -218.68 289.34 -218 289 C-218 289.66 -218 290.32 -218 291 C-216.700625 290.855625 -215.40125 290.71125 -214.0625 290.5625 C-213.33160156 290.48128906 -212.60070312 290.40007812 -211.84765625 290.31640625 C-209.98859771 290.18113386 -209.98859771 290.18113386 -209 289 C-206.66706666 288.95679753 -204.3329866 288.95977609 -202 289 C-201.01 289 -200.02 289 -199 289 C-198.34 289 -197.68 289 -197 289 C-197 289.66 -197 290.32 -197 291 C-196.01 290.34 -195.02 289.68 -194 289 C-191.95703125 288.8046875 -191.95703125 288.8046875 -189.8125 288.875 C-188.554375 288.91625 -187.29625 288.9575 -186 289 C-186 289.66 -186 290.32 -186 291 C-185.443125 290.9278125 -184.88625 290.855625 -184.3125 290.78125 C-179.1640555 290.15508783 -174.18536962 289.90572055 -169 290 C-169 289.67 -169 289.34 -169 289 C-164 289 -159 289 -154 289 C-154 289.66 -154 290.32 -154 291 C-150.27349266 290.49835478 -146.63260227 289.9780083 -143 289 C-142.67 289 -142.34 289 -142 289 C-141.67 289.66 -141.34 290.32 -141 291 C-140.67 290.34 -140.34 289.68 -140 289 C-134 289 -128 289 -122 289 C-122 289.66 -122 290.32 -122 291 C-119.03 290.67 -116.06 290.34 -113 290 C-113 289.67 -113 289.34 -113 289 C-98 289 -98 289 -95.9597168 289.04760742 C-77.69622925 289.46853969 -60.61388216 288.85908946 -46.1875 275.9375 C-34.28830373 262.65399129 -29.09619182 244.13769331 -26 227 C-22.42262717 230.84354641 -21.38479387 235.50582388 -20 240.4375 C-19.60808472 241.83162109 -19.60808472 241.83162109 -19.20825195 243.25390625 C-16.55508376 253.08180414 -15.0581652 262.89028235 -14 273 C-13.88688477 273.93005859 -13.77376953 274.86011719 -13.65722656 275.81835938 C-11.80619003 291.49583398 -11.80619003 291.49583398 -14.48046875 297.10546875 C-16.50106106 299.43872525 -18.51399626 301.18034778 -21 303 C-22.29443439 304.18448243 -23.58635244 305.37172441 -24.875 306.5625 C-28 309 -28 309 -30 309 C-30 309.66 -30 310.32 -30 311 C-31.48738235 312.35382149 -33.04430551 313.63139886 -34.625 314.875 C-39.16077383 318.50128705 -43.60655557 322.20272685 -48 326 C-53.00907377 330.31723149 -58.07588681 334.54830669 -63.21484375 338.7109375 C-65.24958817 340.38325199 -67.25870768 342.07086097 -69.25390625 343.7890625 C-85.76233449 358 -85.76233449 358 -90 358 C-90 357.34 -90 356.68 -90 356 C-93.88258649 354.41631341 -97.79267822 352.94929071 -101.75 351.5625 C-102.89984375 351.15128906 -104.0496875 350.74007813 -105.234375 350.31640625 C-118.45764304 346.3376047 -131.72162133 345.55797898 -145.42724609 345.61181641 C-147.20186178 345.60773831 -148.97647492 345.60238958 -150.75108337 345.59588623 C-155.51779413 345.58235179 -160.28430743 345.5874537 -165.0510211 345.59702349 C-170.07492264 345.60469521 -175.09880888 345.59755364 -180.12271118 345.59286499 C-188.55677276 345.58742808 -196.99075517 345.59454348 -205.42480469 345.60888672 C-215.12748996 345.62519858 -224.8299859 345.61992694 -234.53266656 345.6034075 C-242.91202183 345.58972074 -251.29132065 345.58790818 -259.6706835 345.59572351 C-264.65378197 345.60036213 -269.63679197 345.60113164 -274.61988449 345.59111404 C-279.31017061 345.5823415 -284.00021673 345.58865047 -288.69047737 345.60579681 C-290.39504285 345.60970794 -292.09962912 345.60872211 -293.80418587 345.60200882 C-309.66185377 345.54539291 -325.31055393 347.06846538 -340.3125 352.5 C-341.17810547 352.79519531 -342.04371094 353.09039063 -342.93554688 353.39453125 C-347.48163754 354.97366297 -351.70482528 356.81578712 -356 359 C-356.66 359 -357.32 359 -358 359 C-358 359.66 -358 360.32 -358 361 C-358.66 360.67 -359.32 360.34 -360 360 C-354.54041875 343.78422883 -344.46024518 329.11509137 -335 315 C-334.18813232 313.78135254 -334.18813232 313.78135254 -333.35986328 312.53808594 C-331.66469684 309.9989886 -329.95945323 307.46699708 -328.25 304.9375 C-327.73139404 304.16414307 -327.21278809 303.39078613 -326.6784668 302.59399414 C-323.57093183 298.03900599 -320.24341563 293.85383127 -316.5625 289.7487793 C-314.74222271 287.71149083 -313.05121248 285.59433264 -311.375 283.4375 C-307.35341921 278.36171843 -303.12061558 273.48931 -298.86010742 268.61474609 C-295.55428475 264.82335219 -292.336459 260.98507868 -289.1875 257.0625 C-286.03841265 253.17075769 -282.74815056 249.58991176 -279.1171875 246.14453125 C-277.2375808 244.24064919 -275.50263655 242.28779064 -273.7578125 240.26171875 C-269.40787637 235.25043957 -264.69549338 230.64385558 -259.9609375 226 C-259.29320312 225.34 -258.62546875 224.68 -257.9375 224 C-257.34839844 223.4225 -256.75929688 222.845 -256.15234375 222.25 C-254.36947408 220.38623788 -252.7008146 218.48960848 -251.02705383 216.5300293 C-246.38569798 211.21663086 -241.40272827 206.25460765 -236.41479492 201.26953125 C-235.36263617 200.21437434 -234.31068062 199.15901477 -233.25891113 198.10346985 C-230.42491792 195.26070917 -227.58775216 192.42113613 -224.74969268 189.58243561 C-222.97598874 187.80801819 -221.20299981 186.03288954 -219.43026161 184.25750732 C-213.24484456 178.06286808 -207.05687963 171.87078742 -200.86645508 165.68115234 C-195.09446488 159.90976538 -189.32810329 154.13279617 -183.56429023 148.35324383 C-178.60975285 143.38565907 -173.6513965 138.42190853 -168.69001085 133.46116352 C-165.72883054 130.50023859 -162.76923587 127.53776949 -159.81346703 124.57144165 C-157.04107453 121.78941284 -154.26398208 119.01216555 -151.48311615 116.23860741 C-150.46144882 115.2179908 -149.44150256 114.19564813 -148.42337227 113.17150307 C-147.03869767 111.77917591 -145.64731006 110.39353427 -144.25553894 109.00830078 C-143.47741946 108.22963654 -142.69929998 107.45097229 -141.89760113 106.64871216 C-140 105 -140 105 -138 105 C-137.731875 104.236875 -137.46375 103.47375 -137.1875 102.6875 C-136.0364442 100.08247899 -135.19546244 98.75636995 -133 97 C-132.01 96.67 -131.02 96.34 -130 96 C-128.21744992 94.24118094 -128.21744992 94.24118094 -126.5 92.125 C-121.9683908 86.73874521 -121.9683908 86.73874521 -120 85 C-119.34 85 -118.68 85 -118 85 C-117.5978125 84.1028125 -117.5978125 84.1028125 -117.1875 83.1875 C-116.01506533 81.02775192 -114.80630718 79.64209744 -113 78 C-113.33 77.34 -113.66 76.68 -114 76 C-111 74 -111 74 -108 74 C-108 73.34 -108 72.68 -108 72 C-107.34 72 -106.68 72 -106 72 C-105.67 70.68 -105.34 69.36 -105 68 C-124.95989388 67.92956938 -144.91976216 67.87684645 -164.87975502 67.84456348 C-174.14985969 67.82916807 -183.41988665 67.80822074 -192.68994141 67.77368164 C-200.78026557 67.74355273 -208.87053339 67.72437195 -216.96091211 67.71773452 C-221.23513741 67.71386154 -225.50920169 67.70491735 -229.78337479 67.68280983 C-256.56366493 67.28514709 -256.56366493 67.28514709 -283 71 C-283.33 71.66 -283.66 72.32 -284 73 C-285.6796875 73.5703125 -285.6796875 73.5703125 -287.875 74.125 C-301.84517574 78.58215131 -311.76766797 90.6623899 -318.31958008 103.24682617 C-322.67666822 112.05762918 -325.04864613 121.40584346 -327 131 C-327.66 131 -328.32 131 -329 131 C-335.83649419 116.09485278 -338.33303909 99.19638763 -340 83 C-340.10344727 82.14390137 -340.20689453 81.28780273 -340.31347656 80.40576172 C-341.80677461 67.10528507 -341.80677461 67.10528507 -338.98632812 62.2578125 C-336.31596957 58.98997646 -333.098742 56.54392976 -329.64599609 54.15136719 C-327.15004509 52.4054602 -324.84029489 50.44739867 -322.5 48.5 C-321.6028125 47.778125 -320.705625 47.05625 -319.78125 46.3125 C-316.22814914 43.35823636 -312.8597632 40.23086576 -309.47827148 37.08374023 C-306.2670095 34.11284372 -302.97372185 31.30038923 -299.5625 28.5625 C-294.73164462 24.67408028 -290.17677284 20.55528236 -285.65161133 16.32080078 C-281.99152616 12.89676098 -278.25676896 9.59434916 -274.390625 6.40234375 C-272.73297767 4.93802776 -272.73297767 4.93802776 -272 2 C-266.92897715 1.30849688 -264.15936981 2.2746117 -259.6875 4.75 C-254.61396724 7.42928135 -249.80948445 9.06360859 -244.25 10.3125 C-243.57283936 10.47137695 -242.89567871 10.63025391 -242.19799805 10.79394531 C-228.94473778 13.5718946 -214.96544734 13.15013189 -201.48071289 13.14526367 C-199.79167101 13.14826522 -198.10262981 13.15166999 -196.41358948 13.15544128 C-191.87634639 13.16418117 -187.33912223 13.16661503 -182.80187154 13.16725707 C-179.95599568 13.16797294 -177.11012449 13.17011723 -174.2642498 13.17275429 C-164.30482559 13.18197235 -154.34541466 13.18609336 -144.38598633 13.18530273 C-135.15081703 13.18470189 -125.91570612 13.19526424 -116.68055159 13.2110464 C-108.70720272 13.22417932 -100.73387283 13.22948428 -92.76051325 13.22884732 C-88.01780694 13.22859416 -83.27515273 13.23134425 -78.53245735 13.24202538 C-74.06960177 13.25180477 -69.60684708 13.25171917 -65.14398766 13.24450874 C-63.52081782 13.24347523 -61.89764136 13.24575089 -60.27448273 13.2518692 C-39.60618173 13.32463789 -19.27195631 11.56652278 -1 1 C-0.67 0.67 -0.34 0.34 0 0 Z M-209 290 C-209 290.33 -209 290.66 -209 291 C-207.02 291 -205.04 291 -203 291 C-203 290.67 -203 290.34 -203 290 C-204.98 290 -206.96 290 -209 290 Z " fill="#56A3F7" transform="translate(690,327)"/>
<path d="M0 0 C53.13 0 106.26 0 161 0 C161 147.51 161 295.02 161 447 C13.49 447 -134.02 447 -286 447 C-286 446.67 -286 446.34 -286 446 C-243.10907528 444.64822414 -200.20354483 444.86716712 -157.29701686 444.89646223 C-146.33979669 444.90373846 -135.3825778 444.90512361 -124.42535555 444.90625793 C-104.89611701 444.90842906 -85.36688272 444.91503563 -65.83764648 444.92456055 C-46.9034019 444.93378549 -27.96915849 444.94084123 -9.03491211 444.94506836 C-7.27467825 444.94546244 -7.27467825 444.94546244 -5.47888411 444.94586449 C0.41007235 444.94716984 6.29902882 444.94843347 12.1879853 444.94967639 C60.79199313 444.95998841 109.39599636 444.97755281 158 445 C158.02469321 440.7641643 158.04285671 436.52836658 158.05493164 432.29248047 C158.05996474 430.8510668 158.06679173 429.40965824 158.07543945 427.96826172 C158.08754983 425.89809915 158.09323847 423.82800399 158.09765625 421.7578125 C158.10289307 420.5114502 158.10812988 419.26508789 158.11352539 417.98095703 C158.20816587 415.07228894 158.20816587 415.07228894 157 413 C157.66 413 158.32 413 159 413 C158.649375 411.783125 158.29875 410.56625 157.9375 409.3125 C157.22195655 406.82914333 156.93362063 405.31498892 157.47067261 402.76652527 C158.07287055 399.61914267 158.12715316 396.70214257 158.12939453 393.49731445 C158.13254669 392.20279861 158.13569885 390.90828278 158.13894653 389.57453918 C158.1371571 388.17078619 158.13510624 386.76703351 158.1328125 385.36328125 C158.13348646 383.91790246 158.13445725 382.47252379 158.13571167 381.02714539 C158.13718291 378.0053092 158.13505161 374.98350265 158.13037109 371.96166992 C158.12465878 368.0844377 158.1279659 364.20727447 158.13394356 360.33004475 C158.1375516 357.34898861 158.13640973 354.36794894 158.13381577 351.38689232 C158.13314796 349.95671773 158.13396981 348.52654165 158.13629532 347.09636879 C158.13882743 345.10241346 158.13428555 343.10845289 158.12939453 341.11450195 C158.12859894 339.97930618 158.12780334 338.84411041 158.12698364 337.67451477 C158.18189661 335.0268836 158.18189661 335.0268836 157 333 C157.66 333 158.32 333 159 333 C158.34 330.03 157.68 327.06 157 324 C157.66 324 158.32 324 159 324 C158.34 321.69 157.68 319.38 157 317 C157.33 316.67 157.66 316.34 158 316 C158.08864624 313.38045585 158.11522031 310.78744645 158.09765625 308.16796875 C158.0962413 307.37981277 158.09482635 306.5916568 158.09336853 305.77961731 C158.0877538 303.2488736 158.07521235 300.71821707 158.0625 298.1875 C158.05748571 296.49153775 158.05292268 294.7955741 158.04882812 293.09960938 C158.04064634 289.98069481 158.02990509 286.86181359 158.01586914 283.74291992 C157.97542116 274.20279633 157.98333112 264.66158166 158.02565002 255.12147522 C158.03894852 251.80942528 158.04713854 248.4973697 158.05493164 245.18530273 C158.05997206 243.43855184 158.06680434 241.69180518 158.07543945 239.94506836 C158.08757506 237.42300384 158.09324225 234.90099464 158.09765625 232.37890625 C158.10281754 231.59963272 158.10797882 230.82035919 158.11329651 230.01747131 C158.1136598 226.50254714 157.94562363 223.38094919 157 220 C157.66 220 158.32 220 159 220 C158.34 217.69 157.68 215.38 157 213 C157.33 212.67 157.66 212.34 158 212 C158.0877391 209.96256598 158.10695311 207.92211363 158.09765625 205.8828125 C158.09282227 204.01302734 158.09282227 204.01302734 158.08789062 202.10546875 C158.07951172 200.79191406 158.07113281 199.47835937 158.0625 198.125 C158.05573242 196.16626953 158.05573242 196.16626953 158.04882812 194.16796875 C158.04007153 191.74364326 158.02927527 189.31932376 158.01586914 186.89501953 C157.9466319 174.26401721 158 161.63120778 158 149 C157.84872598 147.43593472 157.68097478 145.87340748 157.5 144.3125 C157.4071875 143.50425781 157.314375 142.69601562 157.21875 141.86328125 C157.1465625 141.24839844 157.074375 140.63351562 157 140 C157.66 140 158.32 140 159 140 C158.8928064 138.78268944 158.8928064 138.78268944 158.78344727 137.54078674 C158.07258019 128.72102949 157.87597164 119.9960632 157.92483521 111.15330315 C157.93784157 108.77745042 157.94417337 106.40165481 157.94897461 104.02577209 C157.96026745 98.99632185 157.97955618 93.96692025 158 88.9375 C158.0236826 83.07118132 158.04400008 77.20488868 158.05593872 71.3385334 C158.06238961 69.0047811 158.07488552 66.67111214 158.08764648 64.33738708 C158.0912787 62.90713573 158.09463047 61.47688363 158.09765625 60.04663086 C158.10289307 58.80312363 158.10812988 57.55961639 158.11352539 56.27842712 C158.01323526 53.38221267 157.67398055 50.81054972 157 48 C157.66 48 158.32 48 159 48 C158.96970703 47.29391602 158.93941406 46.58783203 158.90820312 45.86035156 C158.77126008 42.65693777 158.63561602 39.45347024 158.5 36.25 C158.45230469 35.13882813 158.40460938 34.02765625 158.35546875 32.8828125 C158.31035156 31.81289063 158.26523437 30.74296875 158.21875 29.640625 C158.17685547 28.65610352 158.13496094 27.67158203 158.09179688 26.65722656 C157.98179938 23.47315027 157.98867322 20.30875966 158.10546875 17.125 C158.13253906 16.09375 158.15960937 15.0625 158.1875 14 C158.23970703 12.453125 158.23970703 12.453125 158.29296875 10.875 C157.96461855 7.65279001 157.157413 6.35560055 155 4 C155.66 3.67 156.32 3.34 157 3 C157 2.34 157 1.68 157 1 C156.29898163 1.07050221 155.59796326 1.14100443 154.8757019 1.21364307 C146.82076462 1.96172805 138.84402079 2.14815136 130.7578125 2.14526367 C129.37338675 2.1482639 127.98896182 2.15166838 126.60453796 2.15544128 C122.88401971 2.16418758 119.16352452 2.16661511 115.44299698 2.16725707 C113.11518367 2.16797176 110.78737609 2.17011373 108.45956421 2.17275429 C100.3306237 2.18196941 92.20169947 2.18609311 84.07275391 2.18530273 C76.50402547 2.18469967 68.93536777 2.19530588 61.36665726 2.2110464 C54.85175365 2.22411126 48.33687325 2.22948723 41.82195663 2.22884732 C37.93753303 2.22859247 34.05317271 2.23143822 30.16876221 2.24202538 C26.52430609 2.25169114 22.87997413 2.25179612 19.23551369 2.24450874 C17.26114426 2.24296231 15.28677487 2.25131606 13.31242371 2.25994873 C12.13787125 2.25575424 10.96331879 2.25155975 9.75317383 2.24723816 C8.22240959 2.24805531 8.22240959 2.24805531 6.66072083 2.24888897 C4 2 4 2 0 0 Z M158 2 C157.67 2.99 157.34 3.98 157 5 C157.99 5.495 157.99 5.495 159 6 C158.67 4.68 158.34 3.36 158 2 Z " fill="#3B6CAB" transform="translate(574,288)"/>
<path d="M0 0 C0.7693797 -0.00175304 1.53875939 -0.00350607 2.33145362 -0.00531223 C4.90062462 -0.00995134 7.46973851 -0.00751214 10.03891182 -0.00507832 C11.90309957 -0.00694733 13.76728692 -0.0092484 15.63147366 -0.01194364 C20.74760856 -0.01805668 25.86372711 -0.01792863 30.97986484 -0.01674926 C36.50007869 -0.01654513 42.02028732 -0.02206513 47.54049873 -0.02680683 C58.35260328 -0.03511094 69.16470238 -0.03786155 79.97680984 -0.03841921 C88.76467361 -0.03889443 97.55253559 -0.04094947 106.34039879 -0.04411983 C127.201557 -0.0514927 148.06271424 -0.05764474 168.9238739 -0.05712128 C169.59074643 -0.0571057 170.25761895 -0.05709012 170.94469974 -0.05707407 C174.32457377 -0.05699096 177.70444781 -0.05689192 181.08432184 -0.05678936 C181.75555988 -0.05676942 182.42679792 -0.05674947 183.1183765 -0.05672892 C184.47578228 -0.05668848 185.83318806 -0.05664669 187.19059383 -0.05660353 C208.31184384 -0.05599071 229.43307779 -0.06349924 250.5543232 -0.07717609 C274.29157672 -0.09254064 298.02882126 -0.10112945 321.76608098 -0.10021287 C334.33178253 -0.09988078 346.89746597 -0.10263329 359.46316338 -0.11339092 C370.1602291 -0.12249014 380.8572685 -0.12467588 391.55433641 -0.1178815 C397.01171738 -0.11461355 402.46904784 -0.11456961 407.92642403 -0.12323475 C412.92403453 -0.13108829 417.92155438 -0.12968 422.91916265 -0.12095062 C424.72528101 -0.11941312 426.5314061 -0.12124117 428.33751653 -0.12681069 C437.08843056 -0.15200479 445.45500681 -0.08110559 453.98449898 2.12863445 C454.83746083 2.26624543 455.69042269 2.40385642 456.56923187 2.54563743 C460.11504093 3.4015246 461.69327765 5.37916886 463.98449898 8.12863445 C463.98449898 9.11863445 463.98449898 10.10863445 463.98449898 11.12863445 C463.11438179 10.51375164 463.11438179 10.51375164 462.22668648 9.88644695 C461.4455146 9.34761883 460.66434273 8.8087907 459.85949898 8.25363445 C459.09379585 7.71996258 458.32809273 7.1862907 457.53918648 6.63644695 C452.17989906 3.47332013 447.18351605 2.83689457 441.05891991 2.87415886 C440.27496416 2.87095238 439.49100842 2.8677459 438.68329644 2.86444226 C436.05244206 2.85613106 433.42181467 2.86207049 430.7909565 2.86793804 C428.8872458 2.86491786 426.98353631 2.86102905 425.07982898 2.85634547 C419.84514327 2.84603934 414.61052585 2.84825397 409.37583447 2.85252607 C403.73151658 2.85498858 398.08721534 2.84598498 392.44290352 2.83848858 C381.38320065 2.82572583 370.32352204 2.82394989 359.26381305 2.82628884 C350.27471714 2.82807059 341.28562861 2.82632544 332.29653358 2.8220644 C331.01801686 2.82146921 329.73950014 2.82087402 328.42224048 2.8202608 C325.825053 2.81904906 323.22786551 2.81783493 320.63067803 2.81661842 C303.18640827 2.80882866 285.74214343 2.80491382 268.29787254 2.80893517 C267.61563938 2.80909154 266.93340622 2.80924792 266.23049933 2.80940903 C262.77267814 2.81021481 259.31485696 2.81106058 255.85703579 2.81192233 C254.82693762 2.81217897 254.82693762 2.81217897 253.77602938 2.81244078 C252.38728938 2.81278744 250.99854937 2.81313597 249.60980937 2.81348637 C228.00552309 2.81884246 206.40127764 2.81091669 184.79699898 2.79245281 C160.52285444 2.77173145 136.2487427 2.76104155 111.9745872 2.7650283 C99.12268496 2.76694176 86.2708199 2.76443872 73.41892433 2.75031376 C62.47659314 2.73840941 51.53432202 2.73698439 40.59199002 2.74910393 C35.0090358 2.75499954 29.4261915 2.75607315 23.84324455 2.74410152 C18.73078847 2.73326622 13.61853441 2.73631818 8.50608787 2.75036321 C6.65818776 2.75301664 4.81027195 2.75062337 2.96238723 2.74262735 C-14.21603533 2.56978155 -14.21603533 2.56978155 -29.20692748 10.18588555 C-38.17993315 19.82458506 -37.87105753 31.05276605 -37.77067375 43.34741497 C-37.77687822 45.28931064 -37.78570036 47.2311994 -37.79689914 49.1730727 C-37.81993188 54.48561971 -37.805734 59.79750359 -37.78518999 65.11003661 C-37.76952489 70.84834844 -37.78849371 76.58656206 -37.80299187 82.32486248 C-37.82579647 93.55627645 -37.81635403 104.78744126 -37.795491 116.01885022 C-37.77919694 125.14702495 -37.77500992 134.27513176 -37.77945709 143.40331936 C-37.78008777 144.70322603 -37.78071844 146.00313271 -37.78136823 147.34243049 C-37.7827143 149.98326479 -37.78409387 152.62409907 -37.78550658 155.26493333 C-37.79709827 179.31168331 -37.77559053 203.35830429 -37.73963375 227.40502476 C-37.70702157 249.34598605 -37.70249358 271.28677998 -37.72228813 293.22775555 C-37.72733121 298.84780206 -37.73233585 304.46784858 -37.73703098 310.08789539 C-37.73760916 310.77984204 -37.73818735 311.47178869 -37.73878305 312.18470343 C-37.75365378 330.5332423 -37.7452718 348.88176824 -37.72996551 367.2303046 C-37.72780259 369.86073008 -37.72565349 372.49115557 -37.72351837 375.12158108 C-37.72245201 376.41576593 -37.72138564 377.70995078 -37.72028696 379.04335336 C-37.71381902 388.16092959 -37.7185816 397.2784605 -37.72754288 406.39603329 C-37.73808045 417.5066219 -37.7305709 428.61702632 -37.70008709 439.72758092 C-37.68496367 445.39569309 -37.67778844 451.06351457 -37.69227791 456.73163509 C-37.70530624 461.92171301 -37.69519156 467.11121539 -37.66671918 472.30122684 C-37.66044703 474.1772024 -37.66256492 476.05322902 -37.67398962 477.92918028 C-37.72979064 487.90938592 -37.58419725 495.48752143 -32.01550102 504.12863445 C-31.52050102 505.61363445 -31.52050102 505.61363445 -31.01550102 507.12863445 C-34.01550102 506.12863445 -34.01550102 506.12863445 -35.11315727 504.52707195 C-35.59075493 503.52547039 -35.59075493 503.52547039 -36.07800102 502.50363445 C-36.39897758 501.85136883 -36.71995415 501.1991032 -37.05065727 500.52707195 C-39.40311921 494.67925158 -40.30733602 489.29760745 -40.26438999 483.02756882 C-40.26699728 482.23679492 -40.26960456 481.44602101 -40.27229086 480.63128427 C-40.27858381 477.98327041 -40.27063202 475.33549435 -40.26273918 472.6874876 C-40.26432763 470.76911469 -40.26679158 468.85074235 -40.27005559 466.93237156 C-40.27647067 461.66187285 -40.27039965 456.39145092 -40.26229131 451.12095726 C-40.2557152 445.43648176 -40.26066262 439.75201485 -40.26417351 434.06753826 C-40.26921682 422.93176912 -40.2635721 411.79602966 -40.25432321 400.6602642 C-40.24394201 387.69535531 -40.24400933 374.73045285 -40.24449579 361.76554059 C-40.24501166 337.93481298 -40.23497247 314.10410134 -40.21999335 290.2733791 C-40.20637112 268.52127121 -40.200132 246.76917431 -40.20080376 225.01706219 C-40.20084417 223.62050597 -40.20088453 222.22394976 -40.20092484 220.82739354 C-40.20094519 220.13696125 -40.20096554 219.44652897 -40.2009865 218.73517449 C-40.2010873 215.25958781 -40.20117788 211.78400114 -40.20125675 208.30841446 C-40.20127347 207.62272651 -40.20129018 206.93703855 -40.2013074 206.23057218 C-40.20175104 184.15188077 -40.19463042 162.07319168 -40.18689391 139.99450179 C-40.18387692 130.95520842 -40.18281427 121.91591601 -40.1823616 112.8766222 C-40.18167952 101.86144405 -40.17721567 90.84627462 -40.16802879 79.83110017 C-40.16341104 74.20994276 -40.16036523 68.5887965 -40.161623 62.96763706 C-40.1627184 57.82269533 -40.15919738 52.67777826 -40.15197448 47.53284167 C-40.15016201 45.67087601 -40.15003002 43.8089078 -40.15174177 41.94694204 C-40.15381063 39.41644593 -40.14973493 36.88603034 -40.14413548 34.35554123 C-40.14619079 33.63253764 -40.14824611 32.90953405 -40.15036371 32.16462126 C-40.09873517 19.39240762 -40.09873517 19.39240762 -36.76550102 15.50363445 C-35.85800102 14.71988445 -34.95050102 13.93613445 -34.01550102 13.12863445 C-30.59113265 9.04353403 -30.59113265 9.04353403 -27.26550102 4.87863445 C-20.36595356 -0.48768024 -8.37804351 -0.02455412 0 0 Z " fill="#3E73BA" transform="translate(295.01550102233887,252.87136554718018)"/>
<path d="M0 0 C1.22976563 0.74056641 1.22976563 0.74056641 2.484375 1.49609375 C3.56203125 2.13675781 4.6396875 2.77742187 5.75 3.4375 C6.81734375 4.07558594 7.8846875 4.71367188 8.984375 5.37109375 C13.92289557 8.0386625 18.16934988 8.14546824 23.71351147 8.13422108 C24.49883587 8.13657331 25.28416026 8.13892554 26.09328237 8.14134905 C28.74076547 8.14803812 31.38819947 8.14758085 34.03569031 8.14717102 C35.94663643 8.15046969 37.85758185 8.15419527 39.76852638 8.1583125 C45.03244475 8.16834008 50.29635172 8.17205051 55.5602783 8.17470181 C61.23255802 8.17860257 66.9048287 8.188181 72.57710266 8.19691467 C86.28119484 8.21668465 99.98528776 8.22674557 113.68939063 8.23564246 C120.14009873 8.24002414 126.590806 8.24539122 133.04151344 8.25063133 C154.47983379 8.26764348 175.91815282 8.28216339 197.35647869 8.28938007 C198.74291008 8.28985483 200.12934148 8.29033072 201.51577287 8.29080774 C202.54708999 8.2911623 202.54708999 8.2911623 203.5992418 8.29152403 C207.08268139 8.29272522 210.56612097 8.29394067 214.04956055 8.29516602 C215.0865085 8.29552624 215.0865085 8.29552624 216.14440489 8.29589374 C238.55962959 8.30378725 260.97480138 8.32722046 283.39000298 8.35972196 C307.08820434 8.39402105 330.78636536 8.41373012 354.48459369 8.41702431 C367.40302353 8.41919121 380.3213756 8.4279662 393.23978233 8.45348549 C404.2396553 8.47516449 415.23943161 8.48325665 426.23932352 8.47351871 C431.85255546 8.46896603 437.46558785 8.4709166 443.07879257 8.49028015 C448.21784252 8.50785512 453.35654651 8.50696009 458.49559984 8.49138286 C460.35431332 8.48899819 462.2130504 8.49337469 464.07172772 8.50521151 C477.06511472 8.68640096 477.06511472 8.68640096 489 4 C490.66194738 3.32165413 492.32598903 2.64800425 494 2 C488.2562487 8.89250156 480.69381946 10.96104908 472 12 C469.34382677 12.08529801 466.71570726 12.12844924 464.06069469 12.11581039 C463.28740372 12.11617465 462.51411275 12.11653891 461.71738872 12.11691421 C459.12888185 12.11689365 456.54044619 12.10967896 453.95195007 12.10247803 C452.07625175 12.10093136 450.20055302 12.09982024 448.3248542 12.09910703 C443.17224663 12.09583407 438.01966756 12.08620495 432.86707079 12.07549977 C427.30935414 12.06502571 421.75163207 12.06033691 416.19390869 12.05482483 C404.04320132 12.04161114 391.89251432 12.02074813 379.74182105 11.99825954 C372.15535954 11.98423709 364.56889601 11.97173315 356.98243141 11.9595108 C335.97804799 11.92539732 314.97366935 11.88944351 293.96930218 11.84641647 C292.61172475 11.84364058 291.25414732 11.84086478 289.8965699 11.83808906 C288.53575167 11.83530477 287.17493345 11.83252025 285.81411523 11.82973552 C283.08416602 11.82414932 280.3542168 11.8185674 277.62426758 11.81298828 C276.94740195 11.81160283 276.27053632 11.81021738 275.57315961 11.80878994 C253.62152377 11.76394129 231.66989375 11.73135343 209.71822715 11.70614339 C186.50085461 11.67943517 163.2835238 11.64191825 140.0661872 11.59196877 C127.41328567 11.56500619 114.76041608 11.5428399 102.10748863 11.53295135 C91.33534078 11.52447721 80.56327121 11.50581374 69.79116639 11.47384754 C64.29530531 11.45784318 58.79954598 11.44665673 53.30365944 11.44845009 C48.27078788 11.44997564 43.23814377 11.43771323 38.20532701 11.41455176 C36.38640284 11.40859298 34.56745373 11.40765072 32.7485257 11.41228315 C22.02590857 11.43635683 12.70157215 11.00705634 3 6 C3.33 5.34 3.66 4.68 4 4 C2.68 3.34 1.36 2.68 0 2 C0 1.34 0 0.68 0 0 Z " fill="#3262A2" transform="translate(264,760)"/>
<path d="M0 0 C0.33 0.66 0.66 1.32 1 2 C-0.32418631 4.61250302 -1.70027664 7.10745754 -3.1875 9.625 C-6.32083295 15.00363596 -9.26576015 20.40580812 -12 26 C-11.3915625 25.69707031 -10.783125 25.39414062 -10.15625 25.08203125 C7.01286736 16.8762031 26.46579133 11.91702598 45.53359985 11.85282898 C46.60475243 11.84731395 46.60475243 11.84731395 47.69754446 11.8416875 C50.06741351 11.8307599 52.43723856 11.82682549 54.80712891 11.82299805 C56.51643509 11.81672471 58.22573994 11.81007716 59.93504333 11.80308533 C65.5322069 11.78213116 71.12937043 11.77168522 76.7265625 11.76171875 C78.66390369 11.75766678 80.60124475 11.75354974 82.53858566 11.74936867 C91.65182024 11.7303293 100.76504683 11.71610039 109.87829745 11.7077567 C120.34260689 11.69801428 130.80670311 11.67176812 141.27093756 11.63125581 C149.39282093 11.60090928 157.51464386 11.58627008 165.63658273 11.58297569 C170.47074588 11.58064464 175.30468101 11.57194291 180.1387825 11.54651451 C230.12707185 11.29742667 230.12707185 11.29742667 253 22 C253.66 22.66 254.32 23.32 255 24 C249.68894914 23.10151395 244.81049841 21.19531668 239.765625 19.3515625 C226.58660809 15.26718242 213.25669318 14.55806416 199.57275391 14.61181641 C197.79813822 14.60773831 196.02352508 14.60238958 194.24891663 14.59588623 C189.48220587 14.58235179 184.71569257 14.5874537 179.9489789 14.59702349 C174.92507736 14.60469521 169.90119112 14.59755364 164.87728882 14.59286499 C156.44322724 14.58742808 148.00924483 14.59454348 139.57519531 14.60888672 C129.87251004 14.62519858 120.1700141 14.61992694 110.46733344 14.6034075 C102.08797817 14.58972074 93.70867935 14.58790818 85.3293165 14.59572351 C80.34621803 14.60036213 75.36320803 14.60113164 70.38011551 14.59111404 C65.68982939 14.5823415 60.99978327 14.58865047 56.30952263 14.60579681 C54.60495715 14.60970794 52.90037088 14.60872211 51.19581413 14.60200882 C35.33814623 14.54539291 19.68944607 16.06846538 4.6875 21.5 C3.82189453 21.79519531 2.95628906 22.09039063 2.06445312 22.39453125 C-2.48163754 23.97366297 -6.70482528 25.81578712 -11 28 C-11.66 28 -12.32 28 -13 28 C-13 28.66 -13 29.32 -13 30 C-13.66 29.67 -14.32 29.34 -15 29 C-11.94479689 19.92559077 -6.88697337 6.88697337 0 0 Z " fill="#3B6FAE" transform="translate(345,658)"/>
<path d="M0 0 C99 0 198 0 300 0 C300 0.33 300 0.66 300 1 C294.06 1.495 294.06 1.495 288 2 C288 2.33 288 2.66 288 3 C283.38 3 278.76 3 274 3 C274 2.34 274 1.68 274 1 C183.58 1 93.16 1 0 1 C0 0.67 0 0.34 0 0 Z " fill="#529EF6" transform="translate(288,287)"/>
<path d="M0 0 C0.33 0 0.66 0 1 0 C0.27520662 16.38033049 -7.14386969 33.08103166 -18.6015625 44.8515625 C-31.42422923 56.33766462 -46.99961494 59.18271209 -63.72070312 59.11352539 C-65.1269696 59.11374443 -65.1269696 59.11374443 -66.56164551 59.1139679 C-69.63487123 59.11327584 -72.70803498 59.10551678 -75.78125 59.09765625 C-77.92215949 59.09578956 -80.06306942 59.09436684 -82.20397949 59.09336853 C-87.81975498 59.08956316 -93.43550432 59.07974987 -99.05126953 59.06866455 C-104.78938442 59.05840776 -110.52750357 59.05386178 -116.265625 59.04882812 C-127.51042811 59.03812574 -138.75521188 59.02107323 -150 59 C-150 58.67 -150 58.34 -150 58 C-147.36 57.67 -144.72 57.34 -142 57 C-142 56.67 -142 56.34 -142 56 C-137 56 -132 56 -127 56 C-127 56.66 -127 57.32 -127 58 C-123.27349266 57.49835478 -119.63260227 56.9780083 -116 56 C-115.67 56 -115.34 56 -115 56 C-114.67 56.66 -114.34 57.32 -114 58 C-113.505 57.01 -113.505 57.01 -113 56 C-107 56 -101 56 -95 56 C-95 56.66 -95 57.32 -95 58 C-90.545 57.505 -90.545 57.505 -86 57 C-86 56.67 -86 56.34 -86 56 C-71 56 -71 56 -68.9597168 56.04760742 C-50.69622925 56.46853969 -33.61388216 55.85908946 -19.1875 42.9375 C-8.60749952 31.12665788 -3.61827795 15.11560974 0 0 Z " fill="#4174B3" transform="translate(663,560)"/>
<path d="M0 0 C5.07102285 -0.69150312 7.84063019 0.2746117 12.3125 2.75 C17.38603276 5.42928135 22.19051555 7.06360859 27.75 8.3125 C28.42716064 8.47137695 29.10432129 8.63025391 29.80200195 8.79394531 C43.28256973 11.61953939 57.53214279 11.15718213 71.24804688 11.20532227 C73.01393345 11.21492996 74.77981787 11.22494158 76.54570007 11.23532104 C81.28632294 11.26206361 86.02695544 11.28323658 90.76761055 11.30332303 C95.74169744 11.32537454 100.71575568 11.35266835 105.68981934 11.37937927 C115.08512684 11.42904964 124.48045047 11.4740823 133.87578917 11.51740164 C144.58214235 11.56699504 155.28846674 11.62183031 165.99479198 11.67708123 C187.9965011 11.79050679 209.99823777 11.89742976 232 12 C232 12.33 232 12.66 232 13 C206.94735239 13.07019833 181.89471961 13.12304114 156.84199333 13.15543652 C145.20859354 13.17088057 133.575255 13.19192291 121.94189453 13.22631836 C111.79780666 13.2562962 101.65376317 13.27559288 91.50963223 13.28226548 C86.14244218 13.28616356 80.77537905 13.295273 75.40822983 13.31719017 C70.34723556 13.33768794 65.28641941 13.34380714 60.22538757 13.33932304 C58.37681736 13.34014233 56.52824064 13.34602824 54.67970657 13.35761642 C38.41911365 13.4544747 24.00928652 11.19751881 9.125 4.1875 C5.63696641 2.86204723 4.4041953 2.51612 1 4 C-1.18264119 5.88122884 -3.04700281 7.86532865 -5 10 C-5.66 9.67 -6.32 9.34 -7 9 C-6.57847656 8.51789063 -6.15695312 8.03578125 -5.72265625 7.5390625 C-5.17480469 6.90742188 -4.62695312 6.27578125 -4.0625 5.625 C-3.51722656 4.99851562 -2.97195313 4.37203125 -2.41015625 3.7265625 C-0.93041376 2.04367666 -0.93041376 2.04367666 0 0 Z " fill="#234C93" transform="translate(418,329)"/>
<path d="M0 0 C0.66 0 1.32 0 2 0 C2 31.35 2 62.7 2 95 C-5.59 95 -13.18 95 -21 95 C-21.66 94.34 -22.32 93.68 -23 93 C-15.74 93 -8.48 93 -1 93 C-0.97706187 88.76409271 -0.95714339 84.52840035 -0.94506836 80.29248047 C-0.94003526 78.8510668 -0.93320827 77.40965824 -0.92456055 75.96826172 C-0.91245017 73.89809915 -0.90676153 71.82800399 -0.90234375 69.7578125 C-0.89710693 68.5114502 -0.89187012 67.26508789 -0.88647461 65.98095703 C-0.79183413 63.07228894 -0.79183413 63.07228894 -2 61 C-1.34 61 -0.68 61 0 61 C-0.350625 59.783125 -0.70125 58.56625 -1.0625 57.3125 C-1.7921975 54.78002045 -2.05306375 53.26298383 -1.52734375 50.65751648 C-1.01901527 48.09582631 -0.88529093 45.8466838 -0.90234375 43.24145508 C-0.90564697 42.32733353 -0.9089502 41.41321198 -0.91235352 40.47138977 C-0.92065186 39.49727646 -0.9289502 38.52316315 -0.9375 37.51953125 C-0.94128662 36.51033127 -0.94507324 35.50113129 -0.94897461 34.46134949 C-0.96117116 31.24502256 -0.97980958 28.02878609 -1 24.8125 C-1.02650799 20.56901297 -1.0465324 16.32556952 -1.0625 12.08203125 C-1.07079834 11.10184525 -1.07909668 10.12165924 -1.08764648 9.11177063 C-1.09260132 7.75477303 -1.09260132 7.75477303 -1.09765625 6.37036133 C-1.10551147 5.17386711 -1.10551147 5.17386711 -1.11352539 3.95320129 C-1 2 -1 2 0 0 Z " fill="#3C6FB0" transform="translate(733,640)"/>
<path d="M0 0 C0 0.99 0 1.98 0 3 C-0.99 3.33 -1.98 3.66 -3 4 C-3 4.66 -3 5.32 -3 6 C-4.27497864 7.25497437 -4.27497864 7.25497437 -6.15551758 8.78662109 C-12.62769123 14.29627544 -18.51860936 20.39538044 -24.51171875 26.4140625 C-25.81088108 27.71509419 -27.11026754 29.0159021 -28.40986633 30.3164978 C-31.8114801 33.72190606 -35.21008161 37.1303048 -38.60803223 40.53936768 C-42.06304345 44.00462123 -45.52089384 47.46703909 -48.97851562 50.9296875 C-54.56177126 56.52170075 -60.14332906 62.11540166 -65.72254944 67.71144104 C-68.81234789 70.81031987 -71.90502305 73.90629354 -75 77 C-75.73712723 77.73712723 -76.47425446 78.47425446 -77.23371887 79.23371887 C-90.82247925 92.82247925 -104.41123962 106.41123962 -118 120 C-118 117 -118 117 -116.3189106 114.94418049 C-115.5250791 114.15051673 -114.7312476 113.35685297 -113.9133606 112.53913879 C-113.00752228 111.62628616 -112.10168396 110.71343353 -111.168396 109.7729187 C-110.15163502 108.76358605 -109.13472317 107.75440537 -108.11767578 106.74536133 C-107.05626371 105.68152236 -105.99549791 104.61703825 -104.93533325 103.55195618 C-102.04963397 100.65683079 -99.15457767 97.77123121 -96.25752115 94.88747621 C-93.23208557 91.87333244 -90.2143417 88.85150554 -87.19552612 85.83073425 C-82.12464191 80.75896641 -77.04780126 75.69322175 -71.96728516 70.63110352 C-66.08629205 64.77128475 -60.21418384 58.90267889 -54.34688962 53.02914602 C-48.7110957 47.38766567 -43.06966108 41.7518606 -37.42541122 36.11884117 C-35.01938571 33.71747063 -32.61526772 31.31421364 -30.21261978 28.90946388 C-27.38553214 26.08049832 -24.55352531 23.25655207 -21.71757126 20.43647575 C-20.67495769 19.39811959 -19.63405461 18.35804281 -18.59495544 17.31616974 C-17.18145245 15.89946538 -15.76122163 14.48948295 -14.34060669 13.07991028 C-13.14872836 11.89111125 -13.14872836 11.89111125 -11.93277168 10.67829609 C-10 9 -10 9 -8 9 C-7.731875 8.236875 -7.46375 7.47375 -7.1875 6.6875 C-6.0364442 4.08247899 -5.19546244 2.75636995 -3 1 C-2.01 0.67 -1.02 0.34 0 0 Z " fill="#3A6CAB" transform="translate(560,423)"/>
<path d="M0 0 C0 3 0 3 -1.875 5.1875 C-4 7 -4 7 -6 7 C-6.25905121 7.58469559 -6.51810242 8.16939117 -6.78500366 8.77180481 C-8.09220344 11.1690929 -9.50067775 12.73528595 -11.43994141 14.65112305 C-12.14051666 15.34831955 -12.84109192 16.04551605 -13.56289673 16.76383972 C-14.31815643 17.5056398 -15.07341614 18.24743988 -15.8515625 19.01171875 C-16.62559418 19.78054886 -17.39962585 20.54937897 -18.19711304 21.34150696 C-20.66837917 23.79496337 -23.14623176 26.24162514 -25.625 28.6875 C-28.1100193 31.14495591 -30.59358934 33.60383301 -33.0743103 36.06562805 C-34.61849136 37.59749296 -36.16533614 39.12667799 -37.71499634 40.65299988 C-38.40926727 41.3407399 -39.10353821 42.02847992 -39.81884766 42.73706055 C-40.7424559 43.64828926 -40.7424559 43.64828926 -41.6847229 44.57792664 C-43.11316714 45.79951067 -43.11316714 45.79951067 -43 47 C-41.35 47 -39.7 47 -38 47 C-38 47.66 -38 48.32 -38 49 C-36.2675 48.7525 -36.2675 48.7525 -34.5 48.5 C-30.30092197 47.96761689 -26.22936959 47.92447554 -22 48 C-22 47.67 -22 47.34 -22 47 C-20.33388095 46.957279 -18.66617115 46.95936168 -17 47 C-16.505 47.495 -16.505 47.495 -16 48 C-15.34 47.67 -14.68 47.34 -14 47 C-14 47.66 -14 48.32 -14 49 C-11.36 49 -8.72 49 -6 49 C-6 49.33 -6 49.66 -6 50 C-19.86 50 -33.72 50 -48 50 C-46.24323846 46.48647692 -45.05593558 44.81064738 -42.36401367 42.13696289 C-41.61951462 41.3926149 -40.87501556 40.64826691 -40.10795593 39.88136292 C-38.90016228 38.68905312 -38.90016228 38.68905312 -37.66796875 37.47265625 C-36.83920731 36.6467247 -36.01044586 35.82079315 -35.15657043 34.96983337 C-32.50487096 32.32932467 -29.84631612 29.69584071 -27.1875 27.0625 C-25.40774461 25.2927787 -23.62844237 23.52260156 -21.84960938 21.75195312 C-18.57726674 18.49594041 -15.30236153 15.24255531 -12.02416992 11.99243164 C-9.00856404 9.00240194 -5.99965308 6.00602853 -3 3 C-2 2 -1 1 0 0 Z " fill="#3A6BAA" transform="translate(486,569)"/>
<path d="M0 0 C0 3 0 3 -1.85108948 5.2051239 C-2.71822067 6.06257706 -3.58535187 6.92003021 -4.47875977 7.8034668 C-4.95519424 8.27873306 -5.43162872 8.75399933 -5.92250061 9.2436676 C-7.50528988 10.8192491 -9.09833455 12.38404031 -10.69140625 13.94921875 C-11.79637512 15.04604754 -12.90060784 16.14361842 -14.00413513 17.24189758 C-16.91974035 20.1403499 -19.84377306 23.03014346 -22.77008057 25.91778564 C-27.43082578 30.51949189 -32.07926482 35.13361514 -36.72675896 39.74869728 C-38.34294222 41.35106221 -39.96296816 42.94945699 -41.58363342 44.54728699 C-46.50449917 49.41420728 -51.29608275 54.29629407 -55.68199158 59.65827942 C-56.11693436 60.10104721 -56.55187714 60.543815 -57 61 C-57.66 61 -58.32 61 -59 61 C-59 61.66 -59 62.32 -59 63 C-60.64453125 64.65625 -60.64453125 64.65625 -62.8125 66.5 C-63.52019531 67.1084375 -64.22789062 67.716875 -64.95703125 68.34375 C-67 70 -67 70 -70 72 C-68.71403737 69.17615633 -67.37292429 67.12431572 -65.177948 64.93743896 C-64.60303619 64.35977783 -64.02812439 63.7821167 -63.43579102 63.18695068 C-62.49280151 62.25474701 -62.49280151 62.25474701 -61.53076172 61.30371094 C-60.53545944 60.30797058 -60.53545944 60.30797058 -59.52005005 59.29211426 C-57.3279703 57.10142667 -55.12889375 54.91790636 -52.9296875 52.734375 C-51.40753361 51.21595163 -49.88582098 49.69708579 -48.36453247 48.17779541 C-44.36090745 44.1818037 -40.35131241 40.19185471 -36.3404541 36.203125 C-32.24809371 32.13122945 -28.16139471 28.05366074 -24.07421875 23.9765625 C-16.05501695 15.97880529 -8.02949819 7.98741897 0 0 Z " fill="#3466A6" transform="translate(572,482)"/>
<path d="M0 0 C0.33 0.66 0.66 1.32 1 2 C-0.32418631 4.61250302 -1.70027664 7.10745754 -3.1875 9.625 C-6.32083295 15.00363596 -9.26576015 20.40580812 -12 26 C-11.3915625 25.69707031 -10.783125 25.39414062 -10.15625 25.08203125 C7.45144211 16.66659017 27.43843922 11.59246748 47 12 C47 12.66 47 13.32 47 14 C46.27111572 14.06469482 45.54223145 14.12938965 44.79125977 14.19604492 C25.68559908 15.9490649 9.10615405 18.91143151 -8.33984375 26.86328125 C-11 28 -11 28 -13 28 C-13 28.66 -13 29.32 -13 30 C-13.66 29.67 -14.32 29.34 -15 29 C-11.94479689 19.92559077 -6.88697337 6.88697337 0 0 Z " fill="#3869A5" transform="translate(345,658)"/>
<path d="M0 0 C0 19.14 0 38.28 0 58 C-0.33 57.34 -0.66 56.68 -1 56 C-1.66 56 -2.32 56 -3 56 C-3.33 53.36 -3.66 50.72 -4 48 C-3.34 48 -2.68 48 -2 48 C-2.03029297 47.29391602 -2.06058594 46.58783203 -2.09179688 45.86035156 C-2.22873992 42.65693777 -2.36438398 39.45347024 -2.5 36.25 C-2.54769531 35.13882813 -2.59539063 34.02765625 -2.64453125 32.8828125 C-2.68964844 31.81289063 -2.73476563 30.74296875 -2.78125 29.640625 C-2.82314453 28.65610352 -2.86503906 27.67158203 -2.90820312 26.65722656 C-3.01820062 23.47315027 -3.01132678 20.30875966 -2.89453125 17.125 C-2.86746094 16.09375 -2.84039063 15.0625 -2.8125 14 C-2.77769531 12.96875 -2.74289062 11.9375 -2.70703125 10.875 C-3.03538145 7.65279001 -3.842587 6.35560055 -6 4 C-5.34 3.67 -4.68 3.34 -4 3 C-4 2.34 -4 1.68 -4 1 C-1 0 -1 0 0 0 Z M-3 2 C-3.33 2.99 -3.66 3.98 -4 5 C-3.01 5.495 -3.01 5.495 -2 6 C-2.33 4.68 -2.66 3.36 -3 2 Z " fill="#4074B8" transform="translate(735,288)"/>
<path d="M0 0 C5.07102285 -0.69150312 7.84063019 0.2746117 12.3125 2.75 C24.84575333 9.36868434 39.03645272 10.61952187 53 11 C52.67 11.66 52.34 12.32 52 13 C36.71358994 13.62725391 22.99017385 10.71754962 9.125 4.1875 C5.63696641 2.86204723 4.4041953 2.51612 1 4 C-1.18264119 5.88122884 -3.04700281 7.86532865 -5 10 C-5.66 9.67 -6.32 9.34 -7 9 C-6.57847656 8.51789063 -6.15695312 8.03578125 -5.72265625 7.5390625 C-5.17480469 6.90742188 -4.62695312 6.27578125 -4.0625 5.625 C-3.51722656 4.99851562 -2.97195313 4.37203125 -2.41015625 3.7265625 C-0.93041376 2.04367666 -0.93041376 2.04367666 0 0 Z " fill="#4077BC" transform="translate(418,329)"/>
<path d="M0 0 C0.66 0 1.32 0 2 0 C1.56816702 6.85174995 -1.19467421 12.27105492 -4.1875 18.375 C-4.65736328 19.365 -5.12722656 20.355 -5.61132812 21.375 C-8.62274501 27.60325101 -11.99377847 33.36004503 -16 39 C-16.33 38.34 -16.66 37.68 -17 37 C-16.29077148 35.34277344 -16.29077148 35.34277344 -15.12109375 33.359375 C-14.69683105 32.62444824 -14.27256836 31.88952148 -13.83544922 31.13232422 C-13.14346436 29.95307373 -13.14346436 29.95307373 -12.4375 28.75 C-8.00980328 21.02524777 -4.27431039 13.27894741 -1 5 C-4.12868243 6.019192 -7.22086804 7.08400313 -10.296875 8.25390625 C-17.24552216 10.88716055 -23.54518649 12.81105311 -31 13 C-27.63152773 10.75435182 -24.99377596 10.17500611 -21.0625 9.25 C-14.03946527 7.50580081 -5.23064089 5.23064089 0 0 Z " fill="#3869A8" transform="translate(690,327)"/>
<path d="M0 0 C0 0.99 0 1.98 0 3 C-0.99 3.33 -1.98 3.66 -3 4 C-3 4.66 -3 5.32 -3 6 C-4.43029785 7.41029358 -4.43029785 7.41029358 -6.43164062 9.06274414 C-11.22879277 13.14478673 -15.65624029 17.52958939 -20.09375 21.99609375 C-21.34194519 23.24641136 -21.34194519 23.24641136 -22.61535645 24.52198792 C-25.24594935 27.15813262 -27.87302441 29.79775105 -30.5 32.4375 C-32.29403855 34.23655979 -34.08830715 36.0353902 -35.8828125 37.83398438 C-40.25787125 42.22000812 -44.63005512 46.60888142 -49 51 C-49.66 50.67 -50.32 50.34 -51 50 C-45.69468166 44.64840978 -40.38401811 39.30217515 -35.06641579 33.96279144 C-32.59759911 31.48352257 -30.13068326 29.00242143 -27.66796875 26.51708984 C-24.83883425 23.66213549 -22.00170709 20.81524619 -19.1640625 17.96875 C-18.27756012 17.07192505 -17.39105774 16.1751001 -16.47769165 15.25109863 C-15.65699188 14.4302478 -14.83629211 13.60939697 -13.99072266 12.76367188 C-13.26680328 12.03531128 -12.54288391 11.30695068 -11.79702759 10.55651855 C-10 9 -10 9 -8 9 C-7.731875 8.236875 -7.46375 7.47375 -7.1875 6.6875 C-6.0364442 4.08247899 -5.19546244 2.75636995 -3 1 C-2.01 0.67 -1.02 0.34 0 0 Z " fill="#3C6FB0" transform="translate(560,423)"/>
<path d="M0 0 C25.08 0 50.16 0 76 0 C76 0.33 76 0.66 76 1 C72.04 1.33 68.08 1.66 64 2 C64 2.33 64 2.66 64 3 C59.38 3 54.76 3 50 3 C50 2.34 50 1.68 50 1 C33.5 1 17 1 0 1 C0 0.67 0 0.34 0 0 Z " fill="#539EF5" transform="translate(512,287)"/>
<path d="M0 0 C0.33 0 0.66 0 1 0 C1 17.82 1 35.64 1 54 C0.67 54 0.34 54 0 54 C-2.02554204 35.72878402 -1.82469439 18.28418257 0 0 Z " fill="#3C6FB3" transform="translate(734,560)"/>
<path d="M0 0 C0 4.13476059 -2.22035234 5.7415522 -4.9375 8.5625 C-5.94832365 9.63763835 -6.95873402 10.71316538 -7.96875 11.7890625 C-8.47792969 12.32692383 -8.98710938 12.86478516 -9.51171875 13.41894531 C-11.68637295 15.72915867 -13.81393979 18.08034817 -15.9375 20.4375 C-16.62714844 21.19933594 -17.31679688 21.96117187 -18.02734375 22.74609375 C-20.09432376 25.1077719 -22.04019417 27.54921985 -24 30 C-24.66 30.66 -25.32 31.32 -26 32 C-26.66 32 -27.32 32 -28 32 C-26.41060574 28.06785699 -23.83657498 25.66979654 -20.8125 22.75 C-16.9399414 18.9624626 -13.22338806 15.11055351 -9.703125 10.9921875 C-7.68679169 8.63363248 -5.62666389 6.31677136 -3.5625 4 C-2.88316406 3.236875 -2.20382812 2.47375 -1.50390625 1.6875 C-1.00761719 1.130625 -0.51132812 0.57375 0 0 Z " fill="#3666A4" transform="translate(634,416)"/>
<path d="M0 0 C0.0291544 3.39581516 0.04685068 6.79159786 0.0625 10.1875 C0.07087891 11.14720703 0.07925781 12.10691406 0.08789062 13.09570312 C0.09111328 14.02705078 0.09433594 14.95839844 0.09765625 15.91796875 C0.10289307 16.77156982 0.10812988 17.6251709 0.11352539 18.50463867 C-0.00420677 21.09246747 -0.42892956 23.47661953 -1 26 C-3 25 -3 25 -3.6875 23 C-3.790625 22.34 -3.89375 21.68 -4 21 C-3.67 20.67 -3.34 20.34 -3 20 C-2.84790841 18.06668191 -2.77813669 16.12658716 -2.75 14.1875 C-2.72421875 13.12917969 -2.6984375 12.07085937 -2.671875 10.98046875 C-3.03235324 7.70612476 -3.80096225 6.39000682 -6 4 C-5.34 3.67 -4.68 3.34 -4 3 C-4 2.34 -4 1.68 -4 1 C-1 0 -1 0 0 0 Z M-3 2 C-3.33 2.99 -3.66 3.98 -4 5 C-3.01 5.495 -3.01 5.495 -2 6 C-2.33 4.68 -2.66 3.36 -3 2 Z " fill="#4B84C8" transform="translate(735,288)"/>
<path d="M0 0 C0.33 0 0.66 0 1 0 C1.02940458 3.16664666 1.04693315 6.33325747 1.0625 9.5 C1.07087891 10.386875 1.07925781 11.27375 1.08789062 12.1875 C1.10763596 17.55823086 0.78835893 22.68633663 0 28 C-0.99 27.67 -1.98 27.34 -3 27 C-2.814375 25.9275 -2.62875 24.855 -2.4375 23.75 C-2.0695432 20.59608454 -1.95534657 18.90181508 -3 16 C-2.34 16 -1.68 16 -1 16 C-1.33 11.38 -1.66 6.76 -2 2 C-1.34 2 -0.68 2 0 2 C0 1.34 0 0.68 0 0 Z " fill="#467CBD" transform="translate(734,412)"/>
<path d="M0 0 C4 0 8 0 12 0 C12 0.66 12 1.32 12 2 C12.99 1.34 13.98 0.68 15 0 C17.04296875 -0.1953125 17.04296875 -0.1953125 19.1875 -0.125 C21.0746875 -0.063125 21.0746875 -0.063125 23 0 C23 0.66 23 1.32 23 2 C25.64 2 28.28 2 31 2 C31 2.33 31 2.66 31 3 C20.77 3 10.54 3 0 3 C0 2.01 0 1.02 0 0 Z " fill="#4174B2" transform="translate(481,616)"/>
<path d="M0 0 C1.65 0 3.3 0 5 0 C3.52770326 5.42261403 -0.20374801 8.54266269 -4.125 12.3125 C-5.11306641 13.28026367 -5.11306641 13.28026367 -6.12109375 14.26757812 C-7.74080144 15.85207478 -9.36710005 17.42912099 -11 19 C-11 16 -11 16 -9 13.8125 C-8.01 12.9153125 -8.01 12.9153125 -7 12 C-7.33 11.34 -7.66 10.68 -8 10 C-5 8 -5 8 -2 8 C-2 7.34 -2 6.68 -2 6 C-1.34 6 -0.68 6 0 6 C1.01111093 2.95086772 1.01111093 2.95086772 0 0 Z " fill="#427ABE" transform="translate(584,393)"/>
<path d="M0 0 C8.58 0 17.16 0 26 0 C26 0.33 26 0.66 26 1 C20.06 1.495 20.06 1.495 14 2 C14 2.33 14 2.66 14 3 C9.38 3 4.76 3 0 3 C0 2.01 0 1.02 0 0 Z " fill="#4E8DD5" transform="translate(562,287)"/>
<path d="M0 0 C0 0.99 0 1.98 0 3 C-0.99 3.33 -1.98 3.66 -3 4 C-3 4.66 -3 5.32 -3 6 C-4.5390625 7.515625 -4.5390625 7.515625 -6.625 9.25 C-10.27360004 12.34676552 -13.65896986 15.57544411 -17 19 C-17.66 18.67 -18.32 18.34 -19 18 C-17.54782324 16.49403892 -16.08807139 14.99537896 -14.625 13.5 C-13.81289063 12.6646875 -13.00078125 11.829375 -12.1640625 10.96875 C-10 9 -10 9 -8 9 C-7.731875 8.236875 -7.46375 7.47375 -7.1875 6.6875 C-6.0364442 4.08247899 -5.19546244 2.75636995 -3 1 C-2.01 0.67 -1.02 0.34 0 0 Z " fill="#4075B8" transform="translate(560,423)"/>
<path d="M0 0 C0.99 0.33 1.98 0.66 3 1 C4.21521251 9.11388044 3.76299944 16.85351368 3 25 C2.34 24.67 1.68 24.34 1 24 C1 15 1 15 1.03515625 12.08984375 C1.04417969 11.04957031 1.05320312 10.00929688 1.0625 8.9375 C1.07410156 7.89464844 1.08570313 6.85179687 1.09765625 5.77734375 C1.12794891 2.91268721 1.12794891 2.91268721 0 0 Z " fill="#4B81C1" transform="translate(731,549)"/>
<path d="M0 0 C0 3.52032428 -0.70351351 4.4385343 -3 7 C-3.66 7 -4.32 7 -5 7 C-5 7.66 -5 8.32 -5 9 C-6.64453125 10.65625 -6.64453125 10.65625 -8.8125 12.5 C-9.52019531 13.1084375 -10.22789062 13.716875 -10.95703125 14.34375 C-13 16 -13 16 -16 18 C-14.6415798 14.95667235 -13.11536976 12.87690849 -10.7421875 10.546875 C-10.11699219 9.928125 -9.49179687 9.309375 -8.84765625 8.671875 C-8.19667969 8.03765625 -7.54570312 7.4034375 -6.875 6.75 C-6.21628906 6.1003125 -5.55757812 5.450625 -4.87890625 4.78125 C-3.25703357 3.18288273 -1.6306719 1.58938103 0 0 Z " fill="#386CAF" transform="translate(518,536)"/>
<path d="M0 0 C0.33 0.66 0.66 1.32 1 2 C0.25105469 2.3815625 -0.49789063 2.763125 -1.26953125 3.15625 C-4.41453654 5.27991595 -5.74923103 7.25938851 -7.6875 10.5 C-8.26886719 11.4590625 -8.85023438 12.418125 -9.44921875 13.40625 C-10.21685547 14.69015625 -10.21685547 14.69015625 -11 16 C-11.66 16.99 -12.32 17.98 -13 19 C-12.68760065 12.90821259 -9.78640918 8.58721296 -6 4 C-4.05357714 2.35235085 -2.24971448 1.2319865 0 0 Z " fill="#60B4FB" transform="translate(271,259)"/>
<path d="M0 0 C0.66 0 1.32 0 2 0 C1.55397709 6.69034366 -1.07345542 12.02812122 -4 18 C-5.22787058 14.31638827 -4.6048575 13.51592673 -3.0625 10.0625 C-1.50942421 6.57202798 -1 4.93689355 -1 1 C-0.67 0.67 -0.34 0.34 0 0 Z " fill="#3B6DAC" transform="translate(690,327)"/>
<path d="M0 0 C0.33 0 0.66 0 1 0 C1 6.6 1 13.2 1 20 C-0.46132217 17.07735566 -1.34099246 15.07536854 -2 12 C-1.34 12 -0.68 12 0 12 C-0.556875 10.4221875 -0.556875 10.4221875 -1.125 8.8125 C-2.04276246 4.81367786 -1.91384609 3.50871784 0 0 Z " fill="#4F85C4" transform="translate(733,496)"/>
<path d="M0 0 C2.31 0 4.62 0 7 0 C6.14148438 0.62841797 6.14148438 0.62841797 5.265625 1.26953125 C3.00791958 2.99395108 0.87881944 4.80704283 -1.25 6.6875 C-1.95640625 7.31011719 -2.6628125 7.93273437 -3.390625 8.57421875 C-3.92171875 9.04472656 -4.4528125 9.51523437 -5 10 C-5.66 9.67 -6.32 9.34 -7 9 C-6.57847656 8.51789063 -6.15695312 8.03578125 -5.72265625 7.5390625 C-5.17480469 6.90742188 -4.62695312 6.27578125 -4.0625 5.625 C-3.51722656 4.99851562 -2.97195313 4.37203125 -2.41015625 3.7265625 C-0.93041376 2.04367666 -0.93041376 2.04367666 0 0 Z " fill="#457DBF" transform="translate(418,329)"/>
<path d="M0 0 C0.33 0 0.66 0 1 0 C1 5.28 1 10.56 1 16 C0.01 15.67 -0.98 15.34 -2 15 C-2 14.01 -2 13.02 -2 12 C-1.34 12 -0.68 12 0 12 C-0.556875 10.4221875 -0.556875 10.4221875 -1.125 8.8125 C-2.04276246 4.81367786 -1.91384609 3.50871784 0 0 Z " fill="#5187C7" transform="translate(733,600)"/>
<path d="M0 0 C0.66 0.33 1.32 0.66 2 1 C-1.63 4.63 -5.26 8.26 -9 12 C-9.33 11.01 -9.66 10.02 -10 9 C-6.7 6.03 -3.4 3.06 0 0 Z " fill="#5DAEFA" transform="translate(361,383)"/>
<path d="M0 0 C0.66 0.66 1.32 1.32 2 2 C-0.64 3.98 -3.28 5.96 -6 8 C-6.66 7.67 -7.32 7.34 -8 7 C-5.4837822 4.39391727 -2.94865641 2.10618315 0 0 Z " fill="#4788D2" transform="translate(444,540)"/>
<path d="M0 0 C1.32 0.33 2.64 0.66 4 1 C4 3.97 4 6.94 4 10 C3.67 9.34 3.34 8.68 3 8 C2.34 8 1.68 8 1 8 C0.67 5.36 0.34 2.72 0 0 Z " fill="#518BD1" transform="translate(731,336)"/>
<path d="M0 0 C0 3 0 3 -1.53125 4.60546875 C-2.1809375 5.12753906 -2.830625 5.64960938 -3.5 6.1875 C-4.1496875 6.71730469 -4.799375 7.24710937 -5.46875 7.79296875 C-5.9740625 8.19128906 -6.479375 8.58960938 -7 9 C-7.66 8.67 -8.32 8.34 -9 8 C-6.03 5.36 -3.06 2.72 0 0 Z " fill="#5EB1FB" transform="translate(398,351)"/>
<path d="M0 0 C2.31 1.98 4.62 3.96 7 6 C6.67 6.66 6.34 7.32 6 8 C3.69 6.35 1.38 4.7 -1 3 C-0.67 2.01 -0.34 1.02 0 0 Z " fill="#477BBC" transform="translate(753,256)"/>
<path d="M0 0 C0 0.99 0 1.98 0 3 C-0.99 3.33 -1.98 3.66 -3 4 C-3 4.66 -3 5.32 -3 6 C-3.99 6 -4.98 6 -6 6 C-6 4 -6 4 -4.6875 2.4375 C-3 1 -3 1 0 0 Z " fill="#457FC4" transform="translate(560,423)"/>
<path d="M0 0 C0.66 0 1.32 0 2 0 C1.67 2.31 1.34 4.62 1 7 C0.01 6.01 -0.98 5.02 -2 4 C-1.34 2.68 -0.68 1.36 0 0 Z " fill="#4981BE" transform="translate(690,327)"/>
<path d="M0 0 C2.31 0 4.62 0 7 0 C7 0.33 7 0.66 7 1 C4.69 1 2.38 1 0 1 C0 0.67 0 0.34 0 0 Z " fill="#65A6EF" transform="translate(513,616)"/>
<path d="M0 0 C1.98 0 3.96 0 6 0 C6 0.33 6 0.66 6 1 C4.02 1 2.04 1 0 1 C0 0.67 0 0.34 0 0 Z " fill="#64A7EE" transform="translate(537,616)"/>
<path d="M0 0 C1.65 0 3.3 0 5 0 C5 0.33 5 0.66 5 1 C3.35 1 1.7 1 0 1 C0 0.67 0 0.34 0 0 Z " fill="#64A8EF" transform="translate(475,616)"/>
<path d="M0 0 C0.66 0.33 1.32 0.66 2 1 C1.67 1.66 1.34 2.32 1 3 C0.34 2.34 -0.32 1.68 -1 1 C-0.67 0.67 -0.34 0.34 0 0 Z " fill="#63A5EF" transform="translate(587,469)"/>
<path d="M0 0 C4 1 4 1 4 1 Z " fill="#64A6ED" transform="translate(569,616)"/>
<path d="M0 0 C0.66 0.66 1.32 1.32 2 2 C1.34 2 0.68 2 0 2 C0 1.34 0 0.68 0 0 Z " fill="#5C99E1" transform="translate(259,757)"/>
<path d="M0 0 C0.66 0.66 1.32 1.32 2 2 C1.34 2 0.68 2 0 2 C0 1.34 0 0.68 0 0 Z " fill="#5E9CE9" transform="translate(602,685)"/>
<path d="M0 0 C0.33 0.66 0.66 1.32 1 2 C0.34 1.67 -0.32 1.34 -1 1 C-0.67 0.67 -0.34 0.34 0 0 Z " fill="#5C9CEA" transform="translate(329,685)"/>
<path d="M0 0 C3 1 3 1 3 1 Z " fill="#5F9EEA" transform="translate(355,678)"/>
<path d="M0 0 C0.33 0.66 0.66 1.32 1 2 C0.34 1.67 -0.32 1.34 -1 1 C-0.67 0.67 -0.34 0.34 0 0 Z " fill="#61A1EE" transform="translate(661,637)"/>
<path d="M0 0 C3 1 3 1 3 1 Z " fill="#67AAF1" transform="translate(509,616)"/>
<path d="" fill="#63A3EE" transform="translate(0,0)"/>
<path d="M0 0 C3 1 3 1 3 1 Z " fill="#6CAAF0" transform="translate(616,251)"/>
<path d="M0 0 C2 1 2 1 2 1 Z " fill="#5E97E1" transform="translate(737,772)"/>
<path d="M0 0 C2 1 2 1 2 1 Z " fill="#5995E0" transform="translate(285,772)"/>
<path d="" fill="#5B99E1" transform="translate(0,0)"/>
<path d="M0 0 C2 1 2 1 2 1 Z " fill="#5D9DE9" transform="translate(729,731)"/>
<path d="" fill="#609EEA" transform="translate(0,0)"/>
<path d="M0 0 C2 1 2 1 2 1 Z " fill="#5DA0EC" transform="translate(328,683)"/>
<path d="" fill="#619FEC" transform="translate(0,0)"/>
<path d="" fill="#61A1EB" transform="translate(0,0)"/>
<path d="" fill="#62A1E9" transform="translate(0,0)"/>
<path d="" fill="#65A2EB" transform="translate(0,0)"/>
<path d="" fill="#62A4F1" transform="translate(0,0)"/>
<path d="M0 0 C2 1 2 1 2 1 Z " fill="#65A6EE" transform="translate(574,616)"/>
<path d="M0 0 C2 1 2 1 2 1 Z " fill="#65A8EF" transform="translate(398,584)"/>
<path d="" fill="#64A2EC" transform="translate(0,0)"/>
<path d="" fill="#64A6EC" transform="translate(0,0)"/>
<path d="" fill="#67A5ED" transform="translate(0,0)"/>
<path d="" fill="#66A4ED" transform="translate(0,0)"/>
<path d="" fill="#66A4ED" transform="translate(0,0)"/>
<path d="" fill="#63A4EF" transform="translate(0,0)"/>
<path d="" fill="#66A5EE" transform="translate(0,0)"/>
<path d="" fill="#65A6EF" transform="translate(0,0)"/>
<path d="" fill="#65A6F0" transform="translate(0,0)"/>
<path d="" fill="#64A6F0" transform="translate(0,0)"/>
<path d="" fill="#67A7ED" transform="translate(0,0)"/>
<path d="" fill="#68A7EF" transform="translate(0,0)"/>
<path d="M0 0 C2 1 2 1 2 1 Z " fill="#64A4F1" transform="translate(418,397)"/>
<path d="M0 0 C2 1 2 1 2 1 Z " fill="#68A8F2" transform="translate(669,376)"/>
<path d="M0 0 C2 1 2 1 2 1 Z " fill="#68ABF4" transform="translate(659,337)"/>
<path d="M0 0 C2 1 2 1 2 1 Z " fill="#66ABF5" transform="translate(450,337)"/>
<path d="" fill="#67A9F1" transform="translate(0,0)"/>
<path d="M0 0 C2 1 2 1 2 1 Z " fill="#67AAF0" transform="translate(686,328)"/>
<path d="M0 0 C2 1 2 1 2 1 Z " fill="#69A8F1" transform="translate(680,328)"/>
<path d="" fill="#496384" transform="translate(0,0)"/>
<path d="" fill="#455B75" transform="translate(0,0)"/>
<path d="" fill="#486180" transform="translate(0,0)"/>
<path d="" fill="#405670" transform="translate(0,0)"/>
<path d="" fill="#445D78" transform="translate(0,0)"/>
<path d="" fill="#40556C" transform="translate(0,0)"/>
<path d="" fill="#435B76" transform="translate(0,0)"/>
<path d="" fill="#405267" transform="translate(0,0)"/>
<path d="" fill="#4A6587" transform="translate(0,0)"/>
<path d="" fill="#4D6888" transform="translate(0,0)"/>
<path d="" fill="#4C698A" transform="translate(0,0)"/>
<path d="" fill="#40546A" transform="translate(0,0)"/>
<path d="" fill="#3E5268" transform="translate(0,0)"/>
<path d="" fill="#41556E" transform="translate(0,0)"/>
<path d="" fill="#466079" transform="translate(0,0)"/>
<path d="" fill="#4D6A8C" transform="translate(0,0)"/>
<path d="" fill="#435A73" transform="translate(0,0)"/>
<path d="" fill="#485F7C" transform="translate(0,0)"/>
<path d="" fill="#4E6C91" transform="translate(0,0)"/>
<path d="" fill="#506F95" transform="translate(0,0)"/>
<path d="" fill="#475D73" transform="translate(0,0)"/>
<path d="" fill="#5578A4" transform="translate(0,0)"/>
<path d="" fill="#5C96E0" transform="translate(0,0)"/>
<path d="" fill="#5C96E4" transform="translate(0,0)"/>
<path d="" fill="#5B97E6" transform="translate(0,0)"/>
<path d="" fill="#5F9BE9" transform="translate(0,0)"/>
<path d="" fill="#5C99E6" transform="translate(0,0)"/>
<path d="" fill="#5D98E4" transform="translate(0,0)"/>
<path d="" fill="#5C98E7" transform="translate(0,0)"/>
<path d="" fill="#5E9AE8" transform="translate(0,0)"/>
<path d="" fill="#5D9BE9" transform="translate(0,0)"/>
<path d="" fill="#5D99E9" transform="translate(0,0)"/>
<path d="" fill="#5B97E6" transform="translate(0,0)"/>
<path d="" fill="#5C96E4" transform="translate(0,0)"/>
<path d="" fill="#5A96E5" transform="translate(0,0)"/>
<path d="" fill="#5C98E6" transform="translate(0,0)"/>
<path d="" fill="#5D99E1" transform="translate(0,0)"/>
<path d="" fill="#5C95DD" transform="translate(0,0)"/>
<path d="" fill="#5B99E5" transform="translate(0,0)"/>
<path d="" fill="#5E99E3" transform="translate(0,0)"/>
<path d="" fill="#5F9DEB" transform="translate(0,0)"/>
<path d="" fill="#5F9DEE" transform="translate(0,0)"/>
<path d="" fill="#5F9FEC" transform="translate(0,0)"/>
<path d="" fill="#609EED" transform="translate(0,0)"/>
<path d="" fill="#5E9EEE" transform="translate(0,0)"/>
<path d="" fill="#5DA0EB" transform="translate(0,0)"/>
<path d="" fill="#5E9DE9" transform="translate(0,0)"/>
<path d="" fill="#5E9DE7" transform="translate(0,0)"/>
<path d="" fill="#609EE9" transform="translate(0,0)"/>
<path d="" fill="#5F9EE8" transform="translate(0,0)"/>
<path d="" fill="#5C9DEA" transform="translate(0,0)"/>
<path d="" fill="#62A0EA" transform="translate(0,0)"/>
<path d="" fill="#629FEC" transform="translate(0,0)"/>
<path d="" fill="#5E9EED" transform="translate(0,0)"/>
<path d="" fill="#60A0EC" transform="translate(0,0)"/>
<path d="" fill="#61A4EF" transform="translate(0,0)"/>
<path d="" fill="#5D9EED" transform="translate(0,0)"/>
<path d="" fill="#609EEC" transform="translate(0,0)"/>
<path d="" fill="#60A0EE" transform="translate(0,0)"/>
<path d="" fill="#609FEB" transform="translate(0,0)"/>
<path d="" fill="#62A0EE" transform="translate(0,0)"/>
<path d="" fill="#61A1EB" transform="translate(0,0)"/>
<path d="" fill="#62A0E8" transform="translate(0,0)"/>
<path d="" fill="#62A0EB" transform="translate(0,0)"/>
<path d="" fill="#62A0EC" transform="translate(0,0)"/>
<path d="" fill="#5FA0ED" transform="translate(0,0)"/>
<path d="" fill="#5D9FE9" transform="translate(0,0)"/>
<path d="" fill="#62A1EC" transform="translate(0,0)"/>
<path d="" fill="#63A0EC" transform="translate(0,0)"/>
<path d="" fill="#62A2EC" transform="translate(0,0)"/>
<path d="" fill="#63A1EB" transform="translate(0,0)"/>
<path d="" fill="#61A4F0" transform="translate(0,0)"/>
<path d="" fill="#556D89" transform="translate(0,0)"/>
<path d="" fill="#63A8F2" transform="translate(0,0)"/>
<path d="" fill="#65A2EC" transform="translate(0,0)"/>
<path d="" fill="#64A5ED" transform="translate(0,0)"/>
<path d="" fill="#64A6F0" transform="translate(0,0)"/>
<path d="" fill="#66A6ED" transform="translate(0,0)"/>
<path d="" fill="#65A7EE" transform="translate(0,0)"/>
<path d="" fill="#67A8F0" transform="translate(0,0)"/>
<path d="" fill="#63A4EE" transform="translate(0,0)"/>
<path d="" fill="#63A7EE" transform="translate(0,0)"/>
<path d="" fill="#64A6F1" transform="translate(0,0)"/>
<path d="" fill="#60A5EE" transform="translate(0,0)"/>
<path d="" fill="#67A9F2" transform="translate(0,0)"/>
<path d="" fill="#63A4F1" transform="translate(0,0)"/>
<path d="" fill="#63A1F2" transform="translate(0,0)"/>
<path d="" fill="#61A2ED" transform="translate(0,0)"/>
<path d="" fill="#65A2ED" transform="translate(0,0)"/>
<path d="" fill="#63A5F3" transform="translate(0,0)"/>
<path d="" fill="#67A4ED" transform="translate(0,0)"/>
<path d="" fill="#66A7F4" transform="translate(0,0)"/>
<path d="" fill="#65A4ED" transform="translate(0,0)"/>
<path d="" fill="#64A4EF" transform="translate(0,0)"/>
<path d="" fill="#66A7EC" transform="translate(0,0)"/>
<path d="" fill="#65A1EA" transform="translate(0,0)"/>
<path d="" fill="#62A5ED" transform="translate(0,0)"/>
<path d="" fill="#65A3EF" transform="translate(0,0)"/>
<path d="" fill="#62A2EF" transform="translate(0,0)"/>
<path d="" fill="#64A6EE" transform="translate(0,0)"/>
<path d="" fill="#63A5F0" transform="translate(0,0)"/>
<path d="" fill="#63A4EC" transform="translate(0,0)"/>
<path d="" fill="#64A5F1" transform="translate(0,0)"/>
<path d="" fill="#67A9F0" transform="translate(0,0)"/>
<path d="" fill="#66A5EC" transform="translate(0,0)"/>
<path d="" fill="#65A6F0" transform="translate(0,0)"/>
<path d="" fill="#63A7F3" transform="translate(0,0)"/>
<path d="" fill="#64A7F1" transform="translate(0,0)"/>
<path d="" fill="#62A5F1" transform="translate(0,0)"/>
<path d="" fill="#65A5ED" transform="translate(0,0)"/>
<path d="" fill="#67A6EE" transform="translate(0,0)"/>
<path d="" fill="#64A7F1" transform="translate(0,0)"/>
<path d="" fill="#66A4EF" transform="translate(0,0)"/>
<path d="" fill="#65A4EC" transform="translate(0,0)"/>
<path d="" fill="#65A6EE" transform="translate(0,0)"/>
<path d="" fill="#65A4ED" transform="translate(0,0)"/>
<path d="" fill="#67ABF1" transform="translate(0,0)"/>
<path d="" fill="#65A4ED" transform="translate(0,0)"/>
<path d="" fill="#66A7F1" transform="translate(0,0)"/>
<path d="" fill="#67A8F0" transform="translate(0,0)"/>
<path d="" fill="#65A6EE" transform="translate(0,0)"/>
<path d="" fill="#68A6EF" transform="translate(0,0)"/>
<path d="" fill="#67A4ED" transform="translate(0,0)"/>
<path d="" fill="#67A5EC" transform="translate(0,0)"/>
<path d="" fill="#63A5EE" transform="translate(0,0)"/>
<path d="" fill="#65AAEF" transform="translate(0,0)"/>
<path d="" fill="#68AAF0" transform="translate(0,0)"/>
<path d="" fill="#65A8EE" transform="translate(0,0)"/>
<path d="" fill="#66A5EB" transform="translate(0,0)"/>
<path d="" fill="#63A7EF" transform="translate(0,0)"/>
<path d="" fill="#62A1E7" transform="translate(0,0)"/>
<path d="" fill="#63A5F1" transform="translate(0,0)"/>
<path d="" fill="#68A6EE" transform="translate(0,0)"/>
<path d="" fill="#65A7EF" transform="translate(0,0)"/>
<path d="" fill="#65A5EF" transform="translate(0,0)"/>
<path d="" fill="#65A5F0" transform="translate(0,0)"/>
<path d="" fill="#68A9F2" transform="translate(0,0)"/>
<path d="" fill="#67A5EF" transform="translate(0,0)"/>
<path d="" fill="#67A7EF" transform="translate(0,0)"/>
<path d="" fill="#66A6F1" transform="translate(0,0)"/>
<path d="" fill="#66A9F1" transform="translate(0,0)"/>
<path d="" fill="#66A7EE" transform="translate(0,0)"/>
<path d="" fill="#69AEF3" transform="translate(0,0)"/>
<path d="" fill="#66A6ED" transform="translate(0,0)"/>
<path d="" fill="#66A7EE" transform="translate(0,0)"/>
<path d="" fill="#66A7F2" transform="translate(0,0)"/>
<path d="" fill="#65A3ED" transform="translate(0,0)"/>
<path d="" fill="#67A6EB" transform="translate(0,0)"/>
<path d="" fill="#65A6EF" transform="translate(0,0)"/>
<path d="" fill="#66AAF1" transform="translate(0,0)"/>
<path d="" fill="#64A7F4" transform="translate(0,0)"/>
<path d="" fill="#68A8ED" transform="translate(0,0)"/>
<path d="" fill="#64ACF2" transform="translate(0,0)"/>
<path d="" fill="#66A5EF" transform="translate(0,0)"/>
<path d="" fill="#66A7F0" transform="translate(0,0)"/>
<path d="" fill="#64A5EB" transform="translate(0,0)"/>
<path d="" fill="#66A5EF" transform="translate(0,0)"/>
<path d="" fill="#65A7F3" transform="translate(0,0)"/>
<path d="" fill="#68A6EE" transform="translate(0,0)"/>
<path d="" fill="#68ACF4" transform="translate(0,0)"/>
<path d="" fill="#6BA8F7" transform="translate(0,0)"/>
<path d="" fill="#63A5F0" transform="translate(0,0)"/>
<path d="" fill="#66A7F4" transform="translate(0,0)"/>
<path d="" fill="#65A6F2" transform="translate(0,0)"/>
<path d="" fill="#66A9F6" transform="translate(0,0)"/>
<path d="" fill="#69A7EC" transform="translate(0,0)"/>
<path d="" fill="#66A6F2" transform="translate(0,0)"/>
<path d="" fill="#68A6EE" transform="translate(0,0)"/>
<path d="" fill="#66A7F1" transform="translate(0,0)"/>
<path d="" fill="#66AAEF" transform="translate(0,0)"/>
<path d="" fill="#67A9F2" transform="translate(0,0)"/>
<path d="" fill="#64A8F2" transform="translate(0,0)"/>
<path d="" fill="#68A7EF" transform="translate(0,0)"/>
<path d="" fill="#66AAF3" transform="translate(0,0)"/>
<path d="" fill="#64A8F2" transform="translate(0,0)"/>
<path d="" fill="#68A8EF" transform="translate(0,0)"/>
<path d="" fill="#69AAF6" transform="translate(0,0)"/>
<path d="" fill="#66ABF2" transform="translate(0,0)"/>
<path d="" fill="#69ACF5" transform="translate(0,0)"/>
<path d="" fill="#69A6F0" transform="translate(0,0)"/>
<path d="" fill="#68AAF1" transform="translate(0,0)"/>
<path d="" fill="#69ACF4" transform="translate(0,0)"/>
<path d="" fill="#66A8EF" transform="translate(0,0)"/>
<path d="" fill="#69A9F1" transform="translate(0,0)"/>
<path d="" fill="#566F89" transform="translate(0,0)"/>
<path d="" fill="#6687AD" transform="translate(0,0)"/>
<path d="" fill="#6AA7F0" transform="translate(0,0)"/>
<path d="" fill="#6BABF4" transform="translate(0,0)"/>
<path d="" fill="#67ABF3" transform="translate(0,0)"/>
<path d="" fill="#67ABF2" transform="translate(0,0)"/>
<path d="" fill="#6AAAF0" transform="translate(0,0)"/>
<path d="" fill="#6AADF5" transform="translate(0,0)"/>
<path d="" fill="#6EADF4" transform="translate(0,0)"/>
<path d="" fill="#6DB0F6" transform="translate(0,0)"/>
<path d="" fill="#6DADF5" transform="translate(0,0)"/>
<path d="" fill="#6FAFF6" transform="translate(0,0)"/>
<path d="" fill="#6FAEF6" transform="translate(0,0)"/>
<path d="" fill="#68ACF5" transform="translate(0,0)"/>
<path d="" fill="#6BA9F4" transform="translate(0,0)"/>
<path d="" fill="#6BAFF4" transform="translate(0,0)"/>
<path d="" fill="#67A8F3" transform="translate(0,0)"/>
<path d="" fill="#68A9F3" transform="translate(0,0)"/>
<path d="" fill="#69ABF2" transform="translate(0,0)"/>
<path d="" fill="#68A8F0" transform="translate(0,0)"/>
<path d="" fill="#68A8F0" transform="translate(0,0)"/>
<path d="" fill="#6BA8F1" transform="translate(0,0)"/>
<path d="" fill="#6DAAF7" transform="translate(0,0)"/>
<path d="" fill="#69A8F0" transform="translate(0,0)"/>
<path d="" fill="#6AA9F0" transform="translate(0,0)"/>
<path d="" fill="#6BA9EF" transform="translate(0,0)"/>
<path d="" fill="#6BA8F2" transform="translate(0,0)"/>
<path d="" fill="#6DA6E7" transform="translate(0,0)"/>
<path d="" fill="#6BA5E8" transform="translate(0,0)"/>
<path d="" fill="#6BACEE" transform="translate(0,0)"/>
<path d="" fill="#66A9ED" transform="translate(0,0)"/>
<path d="" fill="#6AA9F1" transform="translate(0,0)"/>
<path d="" fill="#6BA8EA" transform="translate(0,0)"/>
<path d="" fill="#6BA9EA" transform="translate(0,0)"/>
<path d="" fill="#6BA7EA" transform="translate(0,0)"/>
<path d="" fill="#6EA6E9" transform="translate(0,0)"/>
<path d="" fill="#6DA7EB" transform="translate(0,0)"/>
<path d="" fill="#6BA8EF" transform="translate(0,0)"/>
<path d="" fill="#6CA9F1" transform="translate(0,0)"/>
<path d="" fill="#6DA9F1" transform="translate(0,0)"/>
<path d="" fill="#6CABF0" transform="translate(0,0)"/>
<path d="" fill="#6BAAF1" transform="translate(0,0)"/>
<path d="" fill="#6BA9F2" transform="translate(0,0)"/>
<path d="" fill="#6BA9F2" transform="translate(0,0)"/>
<path d="" fill="#6DABF1" transform="translate(0,0)"/>
<path d="" fill="#6CA7F1" transform="translate(0,0)"/>
<path d="" fill="#6EABF2" transform="translate(0,0)"/>
<path d="" fill="#6DABF2" transform="translate(0,0)"/>
<path d="" fill="#6CA9F1" transform="translate(0,0)"/>
<path d="" fill="#6EAAF3" transform="translate(0,0)"/>
<path d="" fill="#6DAAF2" transform="translate(0,0)"/>
<path d="" fill="#6DAAF2" transform="translate(0,0)"/>
<path d="" fill="#6CAAF0" transform="translate(0,0)"/>
<path d="" fill="#6EABF1" transform="translate(0,0)"/>
<path d="" fill="#6DA9F2" transform="translate(0,0)"/>
<path d="" fill="#6CA9EF" transform="translate(0,0)"/>
<path d="" fill="#6BA8F0" transform="translate(0,0)"/>
<path d="" fill="#6CA9EF" transform="translate(0,0)"/>
<path d="" fill="#6BA9EF" transform="translate(0,0)"/>
<path d="" fill="#6CA9F0" transform="translate(0,0)"/>
<path d="" fill="#6CAAF0" transform="translate(0,0)"/>
<path d="" fill="#6CA8EF" transform="translate(0,0)"/>
<path d="" fill="#6BA9F0" transform="translate(0,0)"/>
<path d="" fill="#566C86" transform="translate(0,0)"/>
<path d="" fill="#6784A6" transform="translate(0,0)"/>
<path d="" fill="#45596E" transform="translate(0,0)"/>
<path d="" fill="#556D83" transform="translate(0,0)"/>
<path d="" fill="#3E5268" transform="translate(0,0)"/>
<path d="" fill="#44566A" transform="translate(0,0)"/>
<path d="" fill="#576E86" transform="translate(0,0)"/>
<path d="" fill="#5C718B" transform="translate(0,0)"/>
<path d="" fill="#607590" transform="translate(0,0)"/>
</svg>
