<svg width="1200" height="630" viewBox="0 0 1200 630" fill="none" xmlns="http://www.w3.org/2000/svg">
  <defs>
    <linearGradient id="bg" x1="0" y1="0" x2="1200" y2="630" gradientUnits="userSpaceOnUse">
      <stop stop-color="#0a0a10"/>
      <stop offset="1" stop-color="#030305"/>
    </linearGradient>
    <linearGradient id="mark" x1="0" y1="0" x2="160" y2="160" gradientUnits="userSpaceOnUse">
      <stop stop-color="#00e5ff"/>
      <stop offset="1" stop-color="#8b5cf6"/>
    </linearGradient>
    <radialGradient id="glow1" cx="0.5" cy="0.5" r="0.5">
      <stop stop-color="#00e5ff" stop-opacity="0.22"/>
      <stop offset="1" stop-color="#00e5ff" stop-opacity="0"/>
    </radialGradient>
    <radialGradient id="glow2" cx="0.5" cy="0.5" r="0.5">
      <stop stop-color="#8b5cf6" stop-opacity="0.25"/>
      <stop offset="1" stop-color="#8b5cf6" stop-opacity="0"/>
    </radialGradient>
  </defs>
  <rect width="1200" height="630" fill="url(#bg)"/>
  <ellipse cx="180" cy="90" rx="460" ry="320" fill="url(#glow1)"/>
  <ellipse cx="1030" cy="560" rx="480" ry="340" fill="url(#glow2)"/>
  <g stroke="#ffffff" stroke-opacity="0.05">
    <path d="M0 105h1200M0 210h1200M0 315h1200M0 420h1200M0 525h1200"/>
    <path d="M120 0v630M240 0v630M360 0v630M480 0v630M600 0v630M720 0v630M840 0v630M960 0v630M1080 0v630"/>
  </g>
  <g transform="translate(100 150)">
    <path d="M80 0 148 40v80L80 160 12 120V40L80 0Z" stroke="url(#mark)" stroke-width="7" stroke-linejoin="round" fill="none"/>
    <path d="M50 52h60L50 108h60" stroke="#ffffff" stroke-width="11" stroke-linecap="round" stroke-linejoin="round" fill="none"/>
  </g>
  <text x="100" y="420" font-family="Arial, Helvetica, sans-serif" font-size="92" font-weight="800" letter-spacing="-2" fill="#ffffff">ZRYPTIC STUDIO</text>
  <text x="103" y="478" font-family="Courier New, monospace" font-size="27" letter-spacing="8" fill="#00e5ff">FORGING WORLDS, ONE PIXEL AT A TIME</text>
  <circle cx="100" cy="540" r="5" fill="#9ff5ff"/>
  <text x="118" y="548" font-family="Courier New, monospace" font-size="21" letter-spacing="4" fill="#9aa0b4">Φ — COMING 2027 · ANTVENURE — COMING SOON</text>
</svg>
